<svg xmlns="http://www.w3.org/2000/svg" width="164" height="46" viewBox="0 0 164 46">
    <defs>
        <clipPath id="vnlmqn463a">
            <path data-name="사각형 505" d="M0 0h163.064v46H0z"/>
        </clipPath>
    </defs>
    <g data-name="그룹 1412">
        <g data-name="그룹 1323">
            <g data-name="그룹 1322" style="clip-path:url(#vnlmqn463a)">
                <path data-name="패스 443" d="M3.92 3.419h1.76a1.354 1.354 0 0 1 .8.181.7.7 0 0 1 .237.594.705.705 0 0 1-.241.6 1.332 1.332 0 0 1-.8.185H3.92v3.253h1.63a1.371 1.371 0 0 1 .8.178.69.69 0 0 1 .238.591.718.718 0 0 1-.241.6 1.335 1.335 0 0 1-.8.185H1.04a1.328 1.328 0 0 1-.8-.185.718.718 0 0 1-.24-.6.694.694 0 0 1 .233-.591 1.37 1.37 0 0 1 .807-.178h.867V4.98H1.04a1.328 1.328 0 0 1-.8-.185.707.707 0 0 1-.24-.597.7.7 0 0 1 .233-.6 1.37 1.37 0 0 1 .807-.179h.867v-.4a2.26 2.26 0 0 1 .827-1.981A5.042 5.042 0 0 1 5.55.448a4.012 4.012 0 0 1 1.518.214.7.7 0 0 1 .487.662.583.583 0 0 1-.217.476.9.9 0 0 1-.585.178 6.335 6.335 0 0 1-.765-.064A6.408 6.408 0 0 0 5.3 1.85a1.531 1.531 0 0 0-1.068.295 1.418 1.418 0 0 0-.312 1.043z"/>
                <path data-name="패스 444" d="M13.042 3.06a5.08 5.08 0 0 1 3.224.968 3.015 3.015 0 0 1 1.236 2.483 3.023 3.023 0 0 1-1.24 2.491 5.083 5.083 0 0 1-3.224.967 5.07 5.07 0 0 1-3.217-.967 3.023 3.023 0 0 1-1.236-2.491 3.012 3.012 0 0 1 1.24-2.483 5.071 5.071 0 0 1 3.217-.968m0 1.5a2.3 2.3 0 0 0-1.577.544 1.77 1.77 0 0 0-.623 1.393 1.819 1.819 0 0 0 .618 1.412 2.26 2.26 0 0 0 1.577.559 2.274 2.274 0 0 0 1.579-.559 1.815 1.815 0 0 0 .626-1.412 1.772 1.772 0 0 0-.617-1.391 2.308 2.308 0 0 0-1.583-.545"/>
                <path data-name="패스 445" d="M26.112 8.218h.107a1.041 1.041 0 0 1 .688.2.73.73 0 0 1 .228.587.723.723 0 0 1-.233.605 1.294 1.294 0 0 1-.79.185h-2.011a1.317 1.317 0 0 1-.79-.185.715.715 0 0 1-.242-.605.726.726 0 0 1 .233-.587 1.07 1.07 0 0 1 .7-.2h.1V6.161a2.047 2.047 0 0 0-.274-1.213 1.076 1.076 0 0 0-.916-.358 1.5 1.5 0 0 0-1.109.431 1.545 1.545 0 0 0-.429 1.142v2.056h.1a1.054 1.054 0 0 1 .7.2.73.73 0 0 1 .229.587.721.721 0 0 1-.238.605 1.3 1.3 0 0 1-.785.185h-2.03a1.3 1.3 0 0 1-.786-.185.72.72 0 0 1-.237-.605.726.726 0 0 1 .23-.587 1.048 1.048 0 0 1 .695-.2h.1V4.774h-.139a1.01 1.01 0 0 1-.672-.2.709.709 0 0 1-.229-.573.717.717 0 0 1 .238-.6 1.33 1.33 0 0 1 .8-.185h1.391a.636.636 0 0 1 .348.078.255.255 0 0 1 .119.228v.555a2.357 2.357 0 0 1 .961-.773 3.322 3.322 0 0 1 1.355-.259 2.546 2.546 0 0 1 1.952.69 3 3 0 0 1 .636 2.106z"/>
                <path data-name="패스 446" d="M35.805 8.232h.139a.973.973 0 0 1 .662.2.723.723 0 0 1 .221.573.726.726 0 0 1-.233.6 1.292 1.292 0 0 1-.79.185h-1.247a.669.669 0 0 1-.363-.082.251.251 0 0 1-.127-.224v-.5a2.574 2.574 0 0 1-1.031.729 3.781 3.781 0 0 1-1.417.253 3.922 3.922 0 0 1-2.684-.949 3.03 3.03 0 0 1-1.08-2.373 3.147 3.147 0 0 1 1.087-2.453 4.018 4.018 0 0 1 2.778-.975 3.9 3.9 0 0 1 1.134.167 3.815 3.815 0 0 1 1.01.473v-1.8h-1.088a1.308 1.308 0 0 1-.8-.189.721.721 0 0 1-.238-.6.72.72 0 0 1 .238-.6 1.329 1.329 0 0 1 .8-.185h2.546a.547.547 0 0 1 .38.1.509.509 0 0 1 .1.37zm-3.84-3.5a1.813 1.813 0 0 0-1.33.523 1.788 1.788 0 0 0-.527 1.327 1.863 1.863 0 1 0 3.724 0 1.787 1.787 0 0 0-.532-1.323 1.821 1.821 0 0 0-1.335-.527"/>
                <path data-name="패스 447" d="M39.797 9.691a1.829 1.829 0 0 1-.438.217 1.464 1.464 0 0 1-.462.075.635.635 0 0 1-.5-.164.961.961 0 0 1-.143-.611v-.946a.977.977 0 0 1 .18-.666.82.82 0 0 1 .622-.2.938.938 0 0 1 .785.406 2.733 2.733 0 0 0 .3.327 2.765 2.765 0 0 0 .933.47 4.311 4.311 0 0 0 1.211.156 1.911 1.911 0 0 0 .942-.2.59.59 0 0 0 .351-.519q0-.576-1.89-.8c-.278-.028-.5-.054-.655-.078a4.6 4.6 0 0 1-2.119-.672 1.579 1.579 0 0 1-.7-1.348 1.751 1.751 0 0 1 .841-1.544 4.337 4.337 0 0 1 2.382-.548 8.289 8.289 0 0 1 1.098.071 9.372 9.372 0 0 1 1.15.231 1.176 1.176 0 0 1 .364-.263 1.039 1.039 0 0 1 .43-.085.68.68 0 0 1 .511.181.754.754 0 0 1 .176.544V4.6a.614.614 0 0 1-.18.473.717.717 0 0 1-.507.167 2.758 2.758 0 0 1-1.15-.509 3.061 3.061 0 0 0-1.634-.504 2.189 2.189 0 0 0-.99.182.554.554 0 0 0-.352.5q0 .5 1.473.669.426.042.671.071a6.371 6.371 0 0 1 2.542.7 1.562 1.562 0 0 1 .691 1.384 1.868 1.868 0 0 1-.912 1.662 4.8 4.8 0 0 1-2.591.587 10.285 10.285 0 0 1-1.261-.075 9.625 9.625 0 0 1-1.171-.217"/>
                <path data-name="패스 448" d="M64.726 8.232h.143a.973.973 0 0 1 .662.2.726.726 0 0 1 .221.573.729.729 0 0 1-.233.6 1.3 1.3 0 0 1-.79.185h-1.26a.67.67 0 0 1-.364-.082.252.252 0 0 1-.127-.224v-.5a2.574 2.574 0 0 1-1.031.729 3.777 3.777 0 0 1-1.416.253 3.922 3.922 0 0 1-2.685-.949 3.034 3.034 0 0 1-1.077-2.371 3.149 3.149 0 0 1 1.093-2.455 4.021 4.021 0 0 1 2.779-.975 3.91 3.91 0 0 1 1.134.167 3.83 3.83 0 0 1 1.011.473v-1.8h-1.089a1.307 1.307 0 0 1-.8-.189.721.721 0 0 1-.238-.6.72.72 0 0 1 .238-.6 1.327 1.327 0 0 1 .8-.185h2.546a.55.55 0 0 1 .38.1.512.512 0 0 1 .1.37zm-3.84-3.5a1.814 1.814 0 0 0-1.331.523 1.788 1.788 0 0 0-.526 1.326 1.863 1.863 0 1 0 3.724 0 1.786 1.786 0 0 0-.532-1.323 1.821 1.821 0 0 0-1.335-.527"/>
                <path data-name="패스 449" d="M68.653 6.924a1.937 1.937 0 0 0 .822 1.181 2.977 2.977 0 0 0 1.625.391 4.993 4.993 0 0 0 2.006-.431 5.113 5.113 0 0 1 1.195-.43.663.663 0 0 1 .495.2.685.685 0 0 1 .193.5q0 .669-1.138 1.153a7.2 7.2 0 0 1-2.815.484 5.085 5.085 0 0 1-3.222-.968 3.02 3.02 0 0 1-1.24-2.49 3.014 3.014 0 0 1 1.24-2.483 5.085 5.085 0 0 1 3.222-.968 4.621 4.621 0 0 1 2.93.907 2.733 2.733 0 0 1 1.162 2.223.646.646 0 0 1-.233.576 1.948 1.948 0 0 1-.962.157zm4.411-1.11a1.542 1.542 0 0 0-.717-1.025 2.787 2.787 0 0 0-1.5-.363 2.65 2.65 0 0 0-1.442.346 1.8 1.8 0 0 0-.756 1.042z"/>
                <path data-name="패스 450" d="M93.646 8.232h.139a.978.978 0 0 1 .663.2.725.725 0 0 1 .221.573.727.727 0 0 1-.233.6 1.294 1.294 0 0 1-.79.185h-1.253a.67.67 0 0 1-.364-.082.255.255 0 0 1-.127-.224v-.5a2.564 2.564 0 0 1-1.031.729 3.776 3.776 0 0 1-1.415.253 3.92 3.92 0 0 1-2.685-.949 3.032 3.032 0 0 1-1.08-2.373 3.149 3.149 0 0 1 1.09-2.453 4.019 4.019 0 0 1 2.778-.975 3.906 3.906 0 0 1 1.134.167 3.809 3.809 0 0 1 1.011.473v-1.8h-1.089a1.3 1.3 0 0 1-.8-.189.719.719 0 0 1-.238-.6.718.718 0 0 1 .238-.6 1.324 1.324 0 0 1 .8-.185h2.545a.551.551 0 0 1 .381.1.516.516 0 0 1 .1.37zm-3.839-3.5a1.814 1.814 0 0 0-1.33.523 1.788 1.788 0 0 0-.528 1.327 1.863 1.863 0 1 0 3.724 0 1.783 1.783 0 0 0-.532-1.323 1.821 1.821 0 0 0-1.334-.527"/>
                <path data-name="패스 451" d="M99.799 3.06a5.081 5.081 0 0 1 3.225.968 3.017 3.017 0 0 1 1.236 2.483 3.025 3.025 0 0 1-1.236 2.491 5.846 5.846 0 0 1-6.442 0 3.023 3.023 0 0 1-1.236-2.491 3.012 3.012 0 0 1 1.24-2.483 5.069 5.069 0 0 1 3.212-.968m0 1.5a2.3 2.3 0 0 0-1.576.544 1.772 1.772 0 0 0-.617 1.391 1.821 1.821 0 0 0 .617 1.412 2.507 2.507 0 0 0 3.155 0 1.814 1.814 0 0 0 .622-1.412 1.77 1.77 0 0 0-.618-1.391 2.306 2.306 0 0 0-1.584-.544"/>
                <path data-name="패스 452" d="M108.875 3.614h2.5a1.374 1.374 0 0 1 .8.178.689.689 0 0 1 .238.591.712.712 0 0 1-.242.6 1.329 1.329 0 0 1-.8.186h-2.5v1.825a1.541 1.541 0 0 0 .271 1.053 1.278 1.278 0 0 0 .949.285 4.462 4.462 0 0 0 1.506-.32 4.357 4.357 0 0 1 1.163-.32.805.805 0 0 1 .577.231.747.747 0 0 1 .241.559q0 .548-1.141 1a7 7 0 0 1-2.591.452 4.969 4.969 0 0 1-1.482-.2 2.387 2.387 0 0 1-1.007-.569 1.627 1.627 0 0 1-.385-.683 5.387 5.387 0 0 1-.115-1.331V5.173h-.769a1.289 1.289 0 0 1-.79-.186.725.725 0 0 1-.233-.6.7.7 0 0 1 .229-.594 1.35 1.35 0 0 1 .794-.175h.769V1.949a.87.87 0 0 1 .233-.69 1.606 1.606 0 0 1 1.547 0 .867.867 0 0 1 .233.69z"/>
                <path data-name="패스 453" d="M122.42 8.232h.131a1 1 0 0 1 .675.2.731.731 0 0 1 .233.58.7.7 0 0 1-.241.594 1.36 1.36 0 0 1-.8.181h-.769a1.1 1.1 0 0 1-.61-.135.982.982 0 0 1-.332-.491 6.024 6.024 0 0 1-1.441.6 5.877 5.877 0 0 1-1.538.206 3.363 3.363 0 0 1-2.071-.57 1.846 1.846 0 0 1-.752-1.558 1.845 1.845 0 0 1 .973-1.658 5.293 5.293 0 0 1 2.734-.591c.262 0 .54.012.836.036s.624.062.99.114v-.133a1.273 1.273 0 0 0-.356-.975 1.487 1.487 0 0 0-1.052-.334 3.789 3.789 0 0 0-1.379.348 3.687 3.687 0 0 1-1.233.349.94.94 0 0 1-.621-.2.633.633 0 0 1-.238-.516q0-.576.97-.914a8.289 8.289 0 0 1 2.639-.338 4.134 4.134 0 0 1 2.5.584 2.354 2.354 0 0 1 .754 1.978zm-1.981-1.373a10.286 10.286 0 0 0-.753-.117 5.746 5.746 0 0 0-.639-.039 3.119 3.119 0 0 0-1.411.264.8.8 0 0 0-.512.725.709.709 0 0 0 .327.63 1.7 1.7 0 0 0 .942.217 3.729 3.729 0 0 0 2.047-.583z"/>
                <path data-name="패스 454" d="M128.157 3.614h2.5a1.372 1.372 0 0 1 .8.178.689.689 0 0 1 .238.591.712.712 0 0 1-.242.6 1.329 1.329 0 0 1-.8.186h-2.5v1.825a1.549 1.549 0 0 0 .27 1.053 1.283 1.283 0 0 0 .95.285 4.461 4.461 0 0 0 1.505-.32 4.357 4.357 0 0 1 1.163-.32.8.8 0 0 1 .576.231.745.745 0 0 1 .242.559q0 .548-1.142 1a6.994 6.994 0 0 1-2.59.452 4.97 4.97 0 0 1-1.482-.2 2.4 2.4 0 0 1-1.007-.569 1.628 1.628 0 0 1-.385-.683 5.387 5.387 0 0 1-.115-1.331V5.173h-.77a1.293 1.293 0 0 1-.79-.186.727.727 0 0 1-.233-.6.7.7 0 0 1 .229-.594 1.355 1.355 0 0 1 .794-.175h.77V1.949a.87.87 0 0 1 .233-.69 1.606 1.606 0 0 1 1.547 0 .867.867 0 0 1 .233.69z"/>
                <path data-name="패스 455" d="M139.506 8.232h1.76a1.374 1.374 0 0 1 .8.178.689.689 0 0 1 .238.59.715.715 0 0 1-.242.605 1.331 1.331 0 0 1-.8.185h-5.533a1.332 1.332 0 0 1-.8-.185.717.717 0 0 1-.236-.605.7.7 0 0 1 .233-.59 1.37 1.37 0 0 1 .807-.178h1.76V4.775h-.924a1.315 1.315 0 0 1-.786-.182.709.709 0 0 1-.238-.6.713.713 0 0 1 .23-.6 1.336 1.336 0 0 1 .794-.178h2.463a.63.63 0 0 1 .352.082.256.256 0 0 1 .123.224zM138.327 0a1.143 1.143 0 0 1 .794.2 1.492 1.492 0 0 1 .2.953 1.434 1.434 0 0 1-.176.9 1.289 1.289 0 0 1-.83.175 1.36 1.36 0 0 1-.823-.164.873.873 0 0 1-.184-.655 2.245 2.245 0 0 1 .188-1.16q.188-.249.835-.249"/>
                <path data-name="패스 456" d="M147.999 3.06a5.077 5.077 0 0 1 3.224.968 3.017 3.017 0 0 1 1.237 2.483 3.025 3.025 0 0 1-1.237 2.491 5.845 5.845 0 0 1-6.441 0 3.025 3.025 0 0 1-1.236-2.491 3.014 3.014 0 0 1 1.24-2.483 5.069 5.069 0 0 1 3.212-.968m0 1.5a2.3 2.3 0 0 0-1.576.544 1.77 1.77 0 0 0-.618 1.391 1.819 1.819 0 0 0 .618 1.412 2.507 2.507 0 0 0 3.155 0 1.814 1.814 0 0 0 .622-1.412 1.77 1.77 0 0 0-.618-1.391 2.306 2.306 0 0 0-1.584-.544"/>
                <path data-name="패스 457" d="M161.078 8.218h.106a1.04 1.04 0 0 1 .688.2.73.73 0 0 1 .229.587.727.727 0 0 1-.233.605 1.3 1.3 0 0 1-.79.185h-2.014a1.32 1.32 0 0 1-.79-.185.717.717 0 0 1-.242-.605.726.726 0 0 1 .233-.587 1.07 1.07 0 0 1 .7-.2h.1V6.161a2.048 2.048 0 0 0-.274-1.213 1.077 1.077 0 0 0-.913-.36 1.5 1.5 0 0 0-1.109.431 1.546 1.546 0 0 0-.43 1.142v2.056h.1a1.051 1.051 0 0 1 .695.2.73.73 0 0 1 .229.587.719.719 0 0 1-.238.605 1.3 1.3 0 0 1-.785.185h-2.03a1.3 1.3 0 0 1-.786-.185.723.723 0 0 1-.237-.605.73.73 0 0 1 .229-.587 1.052 1.052 0 0 1 .7-.2h.1V4.774h-.147a1.012 1.012 0 0 1-.672-.2.711.711 0 0 1-.229-.573.719.719 0 0 1 .238-.6 1.331 1.331 0 0 1 .8-.185h1.392a.633.633 0 0 1 .347.078.256.256 0 0 1 .119.228v.555a2.367 2.367 0 0 1 .961-.773 3.318 3.318 0 0 1 1.355-.259 2.545 2.545 0 0 1 1.953.69 3 3 0 0 1 .643 2.106z"/>
                <path data-name="패스 458" d="M155.663 20.882c-.066 1.126-2.125 4.932-3.957 5.186.944-2.771 4.034-6.372 3.957-5.186m6.913 6.217a12.263 12.263 0 0 0-7.088.821c-1.08.573-3.369 2.98-4.2 3.7-.646.563-.652-1.951-.415-3.185 2.187-.666 7.743-6.572 5.321-9.3-1.305-1.468-5.2 4.16-5.971 7.908a51.577 51.577 0 0 1-4.667 2.313c-.662.337-.548 1.785.177 1.543 1.15-.387 3.015-1.493 3.958-1.851-.177 1.181.242 4.779 1.775 4.214s3.637-3.638 4.492-4.111c1.3-.72 5.14-1.489 6.5-1.13 1.017.269.527-.769.114-.923"/>
                <path data-name="패스 459" d="M122.334 23.446c2.836.206 5.618.769 5.5.41a2.469 2.469 0 0 0-1.416-1.13c-.593-.155-4.019-.873-4.375-.565s-.174 1.249.3 1.285"/>
                <path data-name="패스 460" d="M90.72 29.667c-.215.044-2.17 2.442-2.481 2.773-1.14 1.205-4.931 3.846-6.739 4.213-1.049.208-1.084-.235-.942-1.026.474-2.721 5.706-6.74 8.865-7.09 1.444-.166 1.5.491 1.893 1.234-.3.022-.337-.16-.595-.1M89.659 27.1c-2.193-.115-10.982 4.073-10.4 9.038.527 4.468 6.855-.052 9.277-2.1.117.975.473 1.5.887 1.693.53.257 3.779.052 2.363-.769-.791-.461-1.816-.192-2.127-.565-.473-.564 1.474-2.569 1.888-3.286s.122-.824-.231-1.234c1.593-.36.884-2.648-1.656-2.773"/>
                <path data-name="패스 461" d="M98.406 44.563c-1.245-.054 5.434-8.016 7.56-8.939-.825 5.191-6.141 9-7.56 8.939m5.669-13.872c-.295.256-5 3.956-5.082 3.391-.117-.819 4.138-4.056 4.963-3.9.655.123.416.255.119.511m18.789 1.85c1.069-.976 2.842-2.567 1.656-3.339-.847-.554-2.125.668-2.6 2.311a9.022 9.022 0 0 1-2.483 1.135c-.882.252-.882-1.64-2.245-1.649-.861 0-1.949.927-2.955 1.649.71-5.087-5.024-.67-6.912.307-.416-.516-.772-2.52-1.064-2.828s-.908-.321-1.241-.463c-.707-.306-.026-1.136-1.772-.87-2.362.358-6.03 4.105-5.91 5.8.079 1.18 1.24 1.691 2.539.772.815-.583 4.846-3.6 5.615-3.959a15.167 15.167 0 0 1 .708 2.26c-5.5 4.143-8.687 8.168-9.1 10.068-.174.8 0 3.442 3.125 1.646 1.157-.665 6.267-3.137 7.212-10.788 4.211-3.22 5.2-2.876 5.731-2.982s-1.3 3.392 0 3.6 2.771-2.51 3.784-2.673c1.3-.205 1.006 1.439 1.835 1.541s2.3-.718 3.128-1.025c.766 1.952 3.463.371 5.024-.052a9.861 9.861 0 0 1 3.366-.567c.83.154-.353 1.184-.94 1.643a1.343 1.343 0 0 0-.359 1.543c.118.411 1.95-1.285 2.363-1.747a1.849 1.849 0 0 0 0-1.848c-1.65-2.518-6.677.976-8.51.511"/>
                <path data-name="패스 462" d="M160.628 31.824c-1.6-.154-.946 2.119.649 1.551.877-.311.942-1.4-.649-1.551"/>
            </g>
        </g>
        <g data-name="그룹 1352">
            <g data-name="그룹 1188">
                <path data-name="사각형 489" style="fill:none" d="M0 0h164v46H0z"/>
            </g>
        </g>
    </g>
</svg>
