<svg xmlns="http://www.w3.org/2000/svg" width="72" height="44.757" viewBox="0 0 72 44.757">
    <defs>
        <clipPath id="may2vf4pka">
            <path data-name="사각형 508" d="M0 0h71.489v35.932H0z"/>
        </clipPath>
    </defs>
    <g data-name="그룹 1414">
        <g data-name="그룹 1330">
            <g data-name="그룹 1329" transform="translate(0 4.002)" style="clip-path:url(#may2vf4pka)">
                <path data-name="패스 479" d="M3.597 32.29H1.646l.971-2.639h.016zm.818 2.165h.735l-2.073-5.3h-.912l-2.066 5.3h.724l.6-1.553h2.4zm2.1-3.3h1.264v-.59H6.501a.652.652 0 0 0-.658.645v3.241h.673zm2.613 3.3h1.063v-.589h-.819a.225.225 0 0 1-.229-.221v-2.488h.956v-.589h-.956V29.16H8.47v4.644a.651.651 0 0 0 .652.65h.006m7.218 0h.689v-5.3h-.689v2.242h-2.76v-2.24h-.688v5.3h.688v-2.442h2.762zm4.289 0h.65v-3.889h-.672v2.226a1.05 1.05 0 0 1-1.01 1.192c-.558 0-.895-.291-.895-1.1v-2.318h-.673v2.373c0 1.063.513 1.6 1.4 1.6a1.394 1.394 0 0 0 1.186-.6h.015zM25.07 32.5c0 .91-.428 1.5-1.094 1.5-.642 0-1.056-.574-1.056-1.5s.413-1.492 1.056-1.492c.666 0 1.094.581 1.094 1.492m.7 0c0-1.239-.637-2.042-1.623-2.042a1.33 1.33 0 0 0-1.185.641h-.015v-1.942h-.674v5.3h.666v-.567h.016a1.3 1.3 0 0 0 1.186.658c.995 0 1.63-.8 1.63-2.043m3.049-.665c0-1.316.6-2.1 1.583-2.1a1.312 1.312 0 0 1 1.393 1.255h.7a1.935 1.935 0 0 0-2.089-1.882c-1.415 0-2.3 1.04-2.3 2.731s.88 2.723 2.28 2.723a1.992 1.992 0 0 0 2.142-1.9h-.7a1.379 1.379 0 0 1-1.438 1.278c-.964 0-1.56-.788-1.56-2.1m7.516.672c0 .925-.436 1.5-1.148 1.5s-1.14-.574-1.14-1.5.435-1.5 1.14-1.5 1.148.574 1.148 1.5m.7 0a1.857 1.857 0 1 0-1.851 2.05 1.814 1.814 0 0 0 1.851-2.05m3.745-.008c0 .91-.429 1.5-1.094 1.5-.642 0-1.056-.574-1.056-1.5s.413-1.492 1.056-1.492c.666 0 1.094.581 1.094 1.492m.7 0c0-1.239-.635-2.034-1.63-2.034a1.3 1.3 0 0 0-1.186.658h-.013v-.558h-.666v5.3h.673v-1.971h.015a1.33 1.33 0 0 0 1.186.643c.987 0 1.622-.8 1.622-2.043m1.467-.367a1.118 1.118 0 1 1 2.234 0zm-.008.513h2.907a3.659 3.659 0 0 0-.076-.834 1.663 1.663 0 0 0-1.7-1.354 1.8 1.8 0 0 0-1.805 2c0 1.27.681 2.1 1.828 2.1a1.616 1.616 0 0 0 1.714-1.27h-.689a.965.965 0 0 1-1.025.75c-.635 0-1.125-.436-1.155-1.392m6.346 1.806h.673v-2.372c0-1.064-.52-1.6-1.408-1.6a1.378 1.378 0 0 0-1.178.6h-.015v-.513h-.646v3.886h.673v-2.226c0-.78.459-1.192 1.01-1.192s.9.291.9 1.1zm4.274 0h.673v-2.372c0-1.064-.52-1.6-1.407-1.6a1.368 1.368 0 0 0-1.155.574h-.015v-1.9h-.674v5.3h.673v-2.226c0-.788.459-1.192 1.01-1.192s.9.291.9 1.1zm4.16-1.662a1.077 1.077 0 0 1-1.117 1.224c-.5 0-.8-.268-.8-.666 0-.383.23-.574.9-.673.3-.054.719-.1 1.017-.122zm.129 1.664h.612a4.608 4.608 0 0 1-.092-.995v-1.495a1.364 1.364 0 0 0-1.53-1.508 1.381 1.381 0 0 0-1.561 1.293h.673a.785.785 0 0 1 .887-.772.8.8 0 0 1 .88.912v.153c-.306.023-.78.077-1.125.13-1.117.175-1.476.581-1.476 1.224a1.171 1.171 0 0 0 1.316 1.14 1.5 1.5 0 0 0 1.346-.65h.015a2.839 2.839 0 0 0 .054.566m4.3-2.01c0 .864-.413 1.406-1.085 1.406-.634 0-1.047-.558-1.047-1.406s.413-1.414 1.047-1.414c.672 0 1.085.543 1.085 1.414m.634 1.773v-3.645h-.649v.565h-.015a1.291 1.291 0 0 0-1.161-.665c-1 0-1.643.772-1.643 1.972s.642 1.971 1.643 1.971a1.313 1.313 0 0 0 1.154-.649h.015v.42c0 .864-.344 1.223-1.032 1.223-.566 0-.917-.26-.94-.711h-.672c.023.764.611 1.23 1.6 1.23a1.526 1.526 0 0 0 1.7-1.712m1.539-2.083a1.118 1.118 0 1 1 2.234 0zm-.008.513h2.907a3.639 3.639 0 0 0-.077-.834 1.662 1.662 0 0 0-1.7-1.354 1.8 1.8 0 0 0-1.806 2c0 1.27.681 2.1 1.828 2.1a1.616 1.616 0 0 0 1.714-1.27h-.689a.966.966 0 0 1-1.025.75c-.635 0-1.125-.436-1.155-1.392m7.066 1.806v-2.372c0-1.064-.52-1.6-1.408-1.6a1.378 1.378 0 0 0-1.178.6h-.016v-.513h-.65v3.886h.673v-2.226c0-.78.459-1.192 1.01-1.192s.895.291.895 1.1v2.318z"/>
                <path data-name="패스 480" d="M61.437 0c-6.4 0-10.726 4.7-10.726 12.348s4.292 12.314 10.622 12.314c5.6 0 9.638-3.321 10.157-8.613h-3.182a6.685 6.685 0 0 1-6.975 5.776c-4.358 0-7.371-3.563-7.371-9.477 0-5.949 3.047-9.512 7.474-9.512 3.426 0 6.286 2.055 6.733 5.372q.02.148.034.3h3.148q-.01-.172-.025-.342C70.89 3.431 67.01 0 61.437 0"/>
                <path data-name="패스 481" d="m11.449 2.452 4.358 11.933h-8.82L11.38 2.452zm-5.43 14.7H16.81l2.7 7.022h3.321L13.455.242H9.339L0 24.178h3.286z"/>
                <path data-name="패스 482" d="M42.22 24.178h3.113V.242H42.22v10.135H29.27V.242h-3.113v23.936h3.113V13.144h12.949z"/>
            </g>
        </g>
        <g data-name="그룹 1356">
            <g data-name="그룹 1188">
                <path data-name="사각형 489" style="fill:none" d="M0 0h72v44.757H0z"/>
            </g>
        </g>
    </g>
</svg>
