<svg data-name="그룹 1407" xmlns="http://www.w3.org/2000/svg" width="74" height="74" viewBox="0 0 74 74">
    <defs>
        <clipPath id="ckn7oq4bva">
            <path data-name="사각형 510" d="M0 0h74v74H0z"/>
        </clipPath>
    </defs>
    <path data-name="패스 483" d="M2.7 2.7h68.6v68.6H2.7zM0 74h74V0H0z"/>
    <g data-name="그룹 1332">
        <g data-name="그룹 1331" style="clip-path:url(#ckn7oq4bva)">
            <path data-name="패스 484" d="m11.271 36.66 4.454 12.062h-1.654l-1.282-3.678H7.981l-1.3 3.678H5.125L9.562 36.66zm1.1 7.153-1.383-4.049q-.085-.253-.177-.548t-.177-.548q-.085-.3-.186-.607h-.034q-.1.287-.186.59l-.186.557-.186.557-1.434 4.049z"/>
            <path data-name="사각형 509" d="M16.466 36.66h1.366v12.062h-1.366z"/>
            <path data-name="패스 485" d="M21.93 48.646a3.374 3.374 0 0 1-1.2-1.072h-.03v1.147h-1.37V36.66h1.37v4.588h.03a3.731 3.731 0 0 1 1.164-1.063 3.231 3.231 0 0 1 1.636-.384 3.59 3.59 0 0 1 1.51.312 3.313 3.313 0 0 1 1.172.894 4.131 4.131 0 0 1 .759 1.442 6.464 6.464 0 0 1 .27 1.94 6.652 6.652 0 0 1-.253 1.9 4.115 4.115 0 0 1-.743 1.451 3.278 3.278 0 0 1-1.189.919 3.749 3.749 0 0 1-1.577.321 3.431 3.431 0 0 1-1.552-.329m2.539-1.08a2.231 2.231 0 0 0 .768-.717 3.36 3.36 0 0 0 .455-1.08 6.187 6.187 0 0 0 0-2.724 3.461 3.461 0 0 0-.455-1.1 2.226 2.226 0 0 0-.759-.726 2.135 2.135 0 0 0-1.08-.261 2.7 2.7 0 0 0-1.24.27 2.367 2.367 0 0 0-.869.742 3.394 3.394 0 0 0-.506 1.1 5.094 5.094 0 0 0-.169 1.333 5.233 5.233 0 0 0 .169 1.366 3.1 3.1 0 0 0 .515 1.08 2.453 2.453 0 0 0 .869.717 2.68 2.68 0 0 0 1.215.261 2.179 2.179 0 0 0 1.088-.261"/>
            <path data-name="패스 486" d="M33.555 47.508h-.017a4.3 4.3 0 0 1-.472.5 3.543 3.543 0 0 1-.624.447 3.339 3.339 0 0 1-.8.321 3.941 3.941 0 0 1-1 .118 4.528 4.528 0 0 1-1.164-.143 2.639 2.639 0 0 1-.936-.447 2.159 2.159 0 0 1-.624-.759 2.388 2.388 0 0 1-.228-1.08 2.478 2.478 0 0 1 .287-1.265 2.229 2.229 0 0 1 .793-.793 4.113 4.113 0 0 1 1.206-.464q.7-.16 1.51-.3.455-.068.843-.143a3.033 3.033 0 0 0 .666-.2 1.05 1.05 0 0 0 .43-.337.948.948 0 0 0 .152-.565 1.361 1.361 0 0 0-.506-1.139 2.307 2.307 0 0 0-1.451-.4 2.4 2.4 0 0 0-1.6.464 1.915 1.915 0 0 0-.574 1.459h-1.323a3.383 3.383 0 0 1 .236-1.172 2.486 2.486 0 0 1 .649-.936 3.142 3.142 0 0 1 1.08-.616 4.551 4.551 0 0 1 1.51-.228 5.416 5.416 0 0 1 1.282.143 2.786 2.786 0 0 1 1.021.464 2.168 2.168 0 0 1 .675.852 3.115 3.115 0 0 1 .245 1.307v4.15a1.446 1.446 0 0 0 .177.8q.177.261.751.127h.051v1a2.756 2.756 0 0 1-.3.093 1.869 1.869 0 0 1-.439.042 1.372 1.372 0 0 1-1.5-1.3m-1.434.11a2.587 2.587 0 0 0 .827-.565 2.284 2.284 0 0 0 .481-.751 2.21 2.21 0 0 0 .16-.8v-1.485a3.355 3.355 0 0 1-.886.38 10.825 10.825 0 0 1-1.1.262q-.506.1-.962.2a2.678 2.678 0 0 0-.785.3 1.533 1.533 0 0 0-.523.5 1.664 1.664 0 0 0-.033 1.493 1.167 1.167 0 0 0 .413.43 1.7 1.7 0 0 0 .574.211 3.618 3.618 0 0 0 .658.059 2.855 2.855 0 0 0 1.181-.228"/>
            <path data-name="패스 487" d="M37.802 41.451a3.557 3.557 0 0 1 1.054-1.1 2.672 2.672 0 0 1 1.544-.455 1.47 1.47 0 0 1 .3.026 1.8 1.8 0 0 1 .253.076v1.316h-.051a1.517 1.517 0 0 0-.278-.068 2.615 2.615 0 0 0-.329-.017 2.525 2.525 0 0 0-.961.185 2.582 2.582 0 0 0-.81.523 2.366 2.366 0 0 0-.557.835 2.907 2.907 0 0 0-.2 1.1v4.842h-1.365V40h1.366v1.451z"/>
            <path data-name="패스 488" d="M43.187 41.451a3.556 3.556 0 0 1 1.054-1.1 2.672 2.672 0 0 1 1.544-.455 1.47 1.47 0 0 1 .3.026 1.8 1.8 0 0 1 .253.076v1.316h-.051a1.517 1.517 0 0 0-.278-.068 2.615 2.615 0 0 0-.329-.017 2.525 2.525 0 0 0-.961.185 2.582 2.582 0 0 0-.81.523 2.366 2.366 0 0 0-.557.835 2.907 2.907 0 0 0-.2 1.1v4.842h-1.366V40h1.366v1.451z"/>
            <path data-name="패스 489" d="M52.178 47.508h-.017a4.269 4.269 0 0 1-.472.5 3.543 3.543 0 0 1-.624.447 3.332 3.332 0 0 1-.8.321 3.94 3.94 0 0 1-1 .118 4.527 4.527 0 0 1-1.164-.143 2.635 2.635 0 0 1-.936-.447 2.153 2.153 0 0 1-.624-.759 2.387 2.387 0 0 1-.228-1.08A2.478 2.478 0 0 1 46.6 45.2a2.229 2.229 0 0 1 .793-.793 4.113 4.113 0 0 1 1.207-.464q.7-.16 1.51-.3.455-.068.843-.143a3.033 3.033 0 0 0 .666-.2 1.05 1.05 0 0 0 .43-.337.948.948 0 0 0 .152-.565 1.361 1.361 0 0 0-.506-1.139 2.307 2.307 0 0 0-1.451-.4 2.4 2.4 0 0 0-1.6.464 1.915 1.915 0 0 0-.574 1.459h-1.316a3.375 3.375 0 0 1 .236-1.172 2.485 2.485 0 0 1 .649-.936 3.143 3.143 0 0 1 1.08-.616 4.554 4.554 0 0 1 1.51-.228 5.412 5.412 0 0 1 1.282.143 2.786 2.786 0 0 1 1.021.464 2.165 2.165 0 0 1 .675.852 3.12 3.12 0 0 1 .245 1.307v4.15a1.446 1.446 0 0 0 .177.8q.178.261.751.127h.051v1a2.726 2.726 0 0 1-.3.093 1.871 1.871 0 0 1-.439.042 1.371 1.371 0 0 1-1.5-1.3m-1.434.11a2.584 2.584 0 0 0 .827-.565 2.286 2.286 0 0 0 .481-.751 2.216 2.216 0 0 0 .16-.8v-1.485a3.361 3.361 0 0 1-.886.38 10.869 10.869 0 0 1-1.1.262q-.506.1-.962.2a2.68 2.68 0 0 0-.784.3 1.536 1.536 0 0 0-.523.5 1.664 1.664 0 0 0-.033 1.493 1.167 1.167 0 0 0 .413.43 1.7 1.7 0 0 0 .574.211 3.618 3.618 0 0 0 .658.059 2.854 2.854 0 0 0 1.181-.228m1.485-11.126-1.404 2.135h-1.164l.861-2.143z"/>
            <path data-name="패스 490" d="M56.412 41.149a3.546 3.546 0 0 1 1.139-.987 3.365 3.365 0 0 1 1.628-.362 3.069 3.069 0 0 1 2.151.717 2.68 2.68 0 0 1 .784 2.083v6.124h-1.366v-6.006a1.651 1.651 0 0 0-.523-1.316 2.137 2.137 0 0 0-1.451-.456 2.545 2.545 0 0 0-.962.177 2.311 2.311 0 0 0-.759.489 2.146 2.146 0 0 0-.5.759 2.658 2.658 0 0 0-.177.987v5.365H55.01v-8.722h1.366v1.147z"/>
            <path data-name="패스 491" d="M11.203 53.53a3.82 3.82 0 0 1 2.9 1.046 2.752 2.752 0 0 1 .574.9 3.134 3.134 0 0 1 .2 1.156 2.455 2.455 0 0 1-.515 1.628 2.963 2.963 0 0 1-1.425.9v.05a3.761 3.761 0 0 1 .953.363 2.952 2.952 0 0 1 .776.607 2.659 2.659 0 0 1 .515.852 3.068 3.068 0 0 1 .186 1.1 3.514 3.514 0 0 1-.228 1.291 3.07 3.07 0 0 1-.649 1.021 3.448 3.448 0 0 1-1.274.843 4.711 4.711 0 0 1-1.746.3H6.091V53.53zm1.544 4.648a1.8 1.8 0 0 0 .616-1.459 1.736 1.736 0 0 0-.565-1.375 2.306 2.306 0 0 0-1.577-.5h-3.61v3.846h3.408a2.621 2.621 0 0 0 1.729-.515m.548 5.441a1.968 1.968 0 0 0 .54-1.4 2 2 0 0 0-.717-1.687 2.87 2.87 0 0 0-1.813-.557H7.61v4.252h3.8a2.651 2.651 0 0 0 1.89-.608"/>
            <path data-name="패스 492" d="M18.473 65.466a3.986 3.986 0 0 1-1.325-.987 4.417 4.417 0 0 1-.843-1.459 5.513 5.513 0 0 1 0-3.56 4.414 4.414 0 0 1 .843-1.459 3.993 3.993 0 0 1 1.325-.987 4.425 4.425 0 0 1 3.509 0 3.988 3.988 0 0 1 1.324.987 4.293 4.293 0 0 1 .835 1.459 5.661 5.661 0 0 1 0 3.56 4.3 4.3 0 0 1-.835 1.459 3.982 3.982 0 0 1-1.324.987 4.425 4.425 0 0 1-3.509 0m2.969-1.054a2.573 2.573 0 0 0 .877-.734 3.218 3.218 0 0 0 .531-1.088 5.221 5.221 0 0 0 0-2.7 3.314 3.314 0 0 0-.531-1.1 2.537 2.537 0 0 0-.877-.743 2.613 2.613 0 0 0-1.215-.27 2.665 2.665 0 0 0-1.223.27 2.521 2.521 0 0 0-.886.743 3.313 3.313 0 0 0-.531 1.1 5.221 5.221 0 0 0 0 2.7 3.217 3.217 0 0 0 .531 1.088 2.556 2.556 0 0 0 .886.734 2.666 2.666 0 0 0 1.223.27 2.613 2.613 0 0 0 1.215-.27"/>
            <path data-name="패스 493" d="M30.923 64.394h-.034a3.985 3.985 0 0 1-1.071 1.02 2.875 2.875 0 0 1-1.56.38 2.97 2.97 0 0 1-2.143-.759 2.8 2.8 0 0 1-.793-2.125v-6.04h1.366v6.006a1.693 1.693 0 0 0 .515 1.325 2.08 2.08 0 0 0 1.443.464 2.327 2.327 0 0 0 .945-.186 2.075 2.075 0 0 0 .717-.515 2.344 2.344 0 0 0 .455-.768 2.777 2.777 0 0 0 .16-.961V56.87h1.366v8.722h-1.366z"/>
            <path data-name="패스 494" d="M35.136 58.321a3.553 3.553 0 0 1 1.054-1.1 2.672 2.672 0 0 1 1.544-.455 1.461 1.461 0 0 1 .3.026 1.824 1.824 0 0 1 .253.076v1.316h-.051a1.526 1.526 0 0 0-.279-.068 2.616 2.616 0 0 0-.329-.017 2.531 2.531 0 0 0-.962.185 2.58 2.58 0 0 0-.81.523 2.366 2.366 0 0 0-.557.835 2.907 2.907 0 0 0-.2 1.1v4.842h-1.363V56.87h1.366v1.451z"/>
            <path data-name="패스 495" d="M40.53 65.525a3.321 3.321 0 0 1-1.215-.919 4.25 4.25 0 0 1-.767-1.451 6.257 6.257 0 0 1-.27-1.9 5.96 5.96 0 0 1 .3-1.94 4.212 4.212 0 0 1 .81-1.442 3.509 3.509 0 0 1 1.215-.894 3.663 3.663 0 0 1 1.51-.312 3.149 3.149 0 0 1 1.62.4 3.383 3.383 0 0 1 1.113 1.029h.034v-4.572h1.366v12.062h-1.371v-1.063h-.034a3.436 3.436 0 0 1-1.13.979 3.336 3.336 0 0 1-1.569.337 3.908 3.908 0 0 1-1.611-.321m2.91-1.088a2.38 2.38 0 0 0 .861-.717 3.071 3.071 0 0 0 .5-1.08 5.467 5.467 0 0 0 .161-1.366 5.151 5.151 0 0 0-.177-1.392 3.12 3.12 0 0 0-.532-1.088 2.444 2.444 0 0 0-.877-.708 2.718 2.718 0 0 0-1.2-.253 2.181 2.181 0 0 0-1.088.261 2.275 2.275 0 0 0-.776.726 3.478 3.478 0 0 0-.472 1.1 5.87 5.87 0 0 0 0 2.724 3.378 3.378 0 0 0 .472 1.08 2.283 2.283 0 0 0 .784.717 2.225 2.225 0 0 0 1.1.261 2.762 2.762 0 0 0 1.248-.261"/>
            <path data-name="패스 496" d="M53.022 64.378h-.017a4.272 4.272 0 0 1-.472.5 3.56 3.56 0 0 1-.624.447 3.333 3.333 0 0 1-.8.321 3.94 3.94 0 0 1-1 .118 4.53 4.53 0 0 1-1.164-.143 2.634 2.634 0 0 1-.936-.447 2.16 2.16 0 0 1-.625-.759 2.388 2.388 0 0 1-.227-1.08 2.481 2.481 0 0 1 .286-1.265 2.233 2.233 0 0 1 .793-.793 4.11 4.11 0 0 1 1.206-.464q.7-.16 1.51-.3.455-.068.843-.143a3.035 3.035 0 0 0 .666-.2 1.048 1.048 0 0 0 .431-.337.95.95 0 0 0 .152-.565 1.361 1.361 0 0 0-.506-1.139 2.308 2.308 0 0 0-1.451-.4 2.4 2.4 0 0 0-1.6.464 1.915 1.915 0 0 0-.574 1.459h-1.316a3.375 3.375 0 0 1 .237-1.172 2.484 2.484 0 0 1 .649-.936 3.142 3.142 0 0 1 1.08-.616 4.552 4.552 0 0 1 1.51-.228 5.411 5.411 0 0 1 1.282.143 2.784 2.784 0 0 1 1.021.464 2.165 2.165 0 0 1 .675.852 3.115 3.115 0 0 1 .245 1.307v4.15a1.449 1.449 0 0 0 .177.8q.178.261.751.127h.051v1a2.737 2.737 0 0 1-.3.093 1.87 1.87 0 0 1-.439.042 1.372 1.372 0 0 1-1.5-1.3m-1.434.11a2.584 2.584 0 0 0 .827-.565 2.281 2.281 0 0 0 .481-.751 2.217 2.217 0 0 0 .16-.8v-1.485a3.359 3.359 0 0 1-.886.38 10.846 10.846 0 0 1-1.105.262q-.506.1-.962.2a2.682 2.682 0 0 0-.785.3 1.532 1.532 0 0 0-.523.5 1.663 1.663 0 0 0-.034 1.493 1.168 1.168 0 0 0 .413.43 1.7 1.7 0 0 0 .574.211 3.616 3.616 0 0 0 .658.059 2.855 2.855 0 0 0 1.181-.228"/>
            <path data-name="패스 497" d="M57.223 55.217h-1.367V53.53h1.367zm0 10.375h-1.367v-8.721h1.367z"/>
            <path data-name="패스 498" d="M59.179 65.044a3.075 3.075 0 0 1-1.08-2.286h1.4a2.4 2.4 0 0 0 .287.944 1.779 1.779 0 0 0 .548.59 2.179 2.179 0 0 0 .75.312 4.247 4.247 0 0 0 .911.093 2.343 2.343 0 0 0 1.552-.413 1.3 1.3 0 0 0 .473-1.021 1.335 1.335 0 0 0-.127-.616 1.054 1.054 0 0 0-.405-.413 2.8 2.8 0 0 0-.709-.287q-.43-.118-1.037-.253-.641-.135-1.231-.286a3.7 3.7 0 0 1-1.037-.43 2.133 2.133 0 0 1-.717-.734 2.258 2.258 0 0 1-.27-1.164 2.132 2.132 0 0 1 .8-1.746 4.524 4.524 0 0 1 4.791.076 3.048 3.048 0 0 1 .97 2.008h-1.4a1.812 1.812 0 0 0-.59-1.257 2.3 2.3 0 0 0-1.468-.4 2.01 2.01 0 0 0-1.35.363 1.146 1.146 0 0 0-.4.886 1.033 1.033 0 0 0 .152.582 1.146 1.146 0 0 0 .456.38 3.354 3.354 0 0 0 .742.253q.438.1 1 .219.658.135 1.24.3a3.559 3.559 0 0 1 1.029.456 2.084 2.084 0 0 1 .7.767 2.6 2.6 0 0 1 .253 1.231 2.517 2.517 0 0 1-.253 1.156 2.279 2.279 0 0 1-.708.827 3.287 3.287 0 0 1-1.088.5 5.4 5.4 0 0 1-1.392.169 4.288 4.288 0 0 1-2.784-.8"/>
        </g>
    </g>
</svg>
