<svg xmlns="http://www.w3.org/2000/svg" width="99.366" height="46" viewBox="0 0 99.366 46">
    <defs>
        <clipPath id="j8wficviha">
            <path data-name="패스 210" d="M0 23.323h99.366v-46H0z" transform="translate(0 22.677)"/>
        </clipPath>
    </defs>
    <g data-name="그룹 1187">
        <path data-name="사각형 489" style="fill:none" d="M0 0h99v46H0z"/>
        <g data-name="그룹 1185">
            <g data-name="그룹 1116" style="clip-path:url(#j8wficviha)">
                <g data-name="그룹 1110">
                    <path data-name="패스 204" d="M96.792 43.339h-1.536l.76-1.955zm-4.02 2.5h1.525l.519-1.329h2.442l.546 1.329h1.562l-2.734-6.283h-1.145zm-5.033 0h4.428v-1.276h-3.045v-1.278h2.726v-1.28h-2.726v-1.166h2.887v-1.283h-4.27zm-4.473-5.112h.9c.505 0 1.073.1 1.073.728 0 .684-.655.7-1.162.7h-.811zm-1.386 5.112h1.386v-2.512h.684l1.312 2.512h1.661l-1.6-2.653a1.619 1.619 0 0 0 1.359-1.721c0-1.465-1.083-1.909-2.369-1.909H81.88zm-6.347-3.141a1.954 1.954 0 1 1 3.9 0 1.954 1.954 0 1 1-3.9 0m-1.438 0a3.182 3.182 0 0 0 3.39 3.3 3.184 3.184 0 0 0 3.392-3.3 3.183 3.183 0 0 0-3.392-3.3 3.181 3.181 0 0 0-3.39 3.3m-5.656 3.141h1.383v-2.98l2.559 2.98h1.935l-3.037-3.364 2.8-2.919h-1.814l-2.442 2.609v-2.609h-1.384zm-6.862 0h3.949v-1.276h-2.563v-5.007h-1.386zm-2.716 0h1.385v-6.283h-1.385zm-.885-5.52a2.7 2.7 0 0 0-2.122-.923 3.183 3.183 0 0 0-3.392 3.3 3.184 3.184 0 0 0 3.392 3.3 2.742 2.742 0 0 0 2.272-1.093l-1.154-.86a1.5 1.5 0 0 1-1.3.675 1.865 1.865 0 0 1-1.771-2.02 1.871 1.871 0 0 1 1.815-2.024 1.479 1.479 0 0 1 1.194.515zm-12.473 5.52h1.386v-4.473h.016l2.742 4.473h1.812v-6.283h-1.386v4.368h-.016l-2.673-4.368h-1.88zm-1.312-6.283h-1.386v3.808a1.278 1.278 0 0 1-1.259 1.359 1.281 1.281 0 0 1-1.27-1.359v-3.808h-1.384v3.86a2.429 2.429 0 0 0 2.654 2.585 2.427 2.427 0 0 0 2.645-2.585zm-11.593 3.142a1.9 1.9 0 0 1 1.953-2.024 1.9 1.9 0 0 1 1.953 2.024 1.9 1.9 0 0 1-1.953 2.024 1.9 1.9 0 0 1-1.953-2.024m-1.438 0a3.184 3.184 0 0 0 3.392 3.3 3.184 3.184 0 0 0 3.392-3.3 3.183 3.183 0 0 0-3.392-3.3 3.183 3.183 0 0 0-3.392 3.3m-.4-2.379a2.7 2.7 0 0 0-2.122-.923 3.183 3.183 0 0 0-3.392 3.3 3.184 3.184 0 0 0 3.392 3.3 2.742 2.742 0 0 0 2.278-1.089l-1.154-.86a1.5 1.5 0 0 1-1.3.675 1.865 1.865 0 0 1-1.775-2.024 1.871 1.871 0 0 1 1.819-2.024 1.486 1.486 0 0 1 1.191.515zm-8.309-.266a2.845 2.845 0 0 0-1.927-.657 2.156 2.156 0 0 0-2.393 2.043c0 2.1 2.947 1.475 2.947 2.629 0 .444-.507.657-.959.657a1.538 1.538 0 0 1-1.207-.6l-.986 1.083a2.977 2.977 0 0 0 2.112.791c1.3 0 2.424-.665 2.424-2.069 0-2.2-2.893-1.465-2.893-2.609 0-.471.542-.649.931-.649a1.347 1.347 0 0 1 1 .418zm-8.053 5.786h1.385v-5.058h1.793v-1.225h-4.97v1.225h1.791zm-5.732-5.112h.9c.507 0 1.075.1 1.075.728 0 .684-.657.7-1.164.7h-.815zM7.28 45.839h1.385v-2.512h.684l1.313 2.512h1.661l-1.6-2.653a1.619 1.619 0 0 0 1.361-1.721c0-1.465-1.083-1.909-2.371-1.909H7.281zm-3.264-2.5H2.48l.765-1.953zm-4.02 2.5h1.527l.523-1.331h2.44l.542 1.331H6.59l-2.732-6.284H2.716z"/>
                </g>
                <g data-name="그룹 1111">
                    <path data-name="패스 205" d="M51.879 2.044c-5.455.146-9.949 5-11.536 11.333 4.453 1.2 7.4 3.749 7.629 8.783.146 3.177-1.962 6.081-5.53 7.919 1.84 2.454 4.8 3.9 9.437 3.72 9.392-.377 12.2-5.357 12.2-14.126-.001-8.655-3.249-17.629-11.867-17.629h-.333"/>
                </g>
                <g data-name="그룹 1112">
                    <path data-name="패스 206" d="M16.446 22.318c-.173 4.9 7.357 9.8 16.812 9.8a20.151 20.151 0 0 0 9.188-2.022c-2.217-2.953-2.805-7.37-2.7-12.159a20.515 20.515 0 0 1 .6-4.546 34.1 34.1 0 0 0-8.288-.931h-.355c-10.628-.004-15.101 5.53-15.257 9.858"/>
                </g>
                <g data-name="그룹 1113">
                    <path data-name="패스 207" d="M64.289 6.014c0 3.784 2.278 6.015 6.132 6.015 3.6 0 6.136-2.231 6.136-6.014S74.896 0 70.421 0s-6.132 2.233-6.132 6.014"/>
                </g>
                <g data-name="그룹 1114">
                    <path data-name="패스 208" d="M.812 23.747c0 2.964 1.434 4.954 6.42 4.954s6.42-1.99 6.42-4.954-3.016-8.355-6.42-8.355-6.42 5.39-6.42 8.355"/>
                </g>
                <g data-name="그룹 1115">
                    <path data-name="패스 209" d="M67.21 23.555c0 3.522 3.248 5.385 15.672 5.385 8.654 0 15.579-2.856 15.672-6.378v-.082c-.03-4.24-10.6-6.844-19.2-6.844-8.655.004-12.144 4.396-12.144 7.919"/>
                </g>
            </g>
        </g>
    </g>
</svg>
