<svg data-name="그룹 1452" xmlns="http://www.w3.org/2000/svg" width="100" height="53.115" viewBox="0 0 100 53.115">
    <defs>
        <clipPath id="63ekugnwma">
            <path data-name="사각형 530" d="M0 0h100v53.115H0z"/>
        </clipPath>
    </defs>
    <g data-name="그룹 1452" style="clip-path:url(#63ekugnwma)">
        <path data-name="패스 569" d="M52.243 2.093c-5.576.147-10.178 5.117-11.8 11.592 4.555 1.225 7.569 3.836 7.806 8.988.149 3.25-2.007 6.222-5.658 8.1 1.882 2.511 4.913 3.995 9.655 3.8 9.609-.384 12.481-5.48 12.481-14.451 0-8.857-3.321-18.039-12.141-18.04h-.34"/>
        <path data-name="패스 570" d="M16.001 22.832c-.178 5.016 7.525 10.032 17.2 10.032a20.6 20.6 0 0 0 9.4-2.074c-2.276-3.022-2.877-7.539-2.775-12.439a21.088 21.088 0 0 1 .619-4.651 34.934 34.934 0 0 0-8.479-.954h-.364c-10.87 0-15.446 5.66-15.6 10.087"/>
        <path data-name="패스 571" d="M64.938 6.153c0 3.87 2.332 6.154 6.275 6.154 3.683 0 6.278-2.284 6.278-6.154S75.794 0 71.218 0s-6.28 2.285-6.28 6.153"/>
        <path data-name="패스 572" d="M0 24.296c0 3.034 1.467 5.067 6.569 5.067s6.569-2.033 6.569-5.067-3.087-8.548-6.569-8.548S0 21.262 0 24.296"/>
        <path data-name="패스 573" d="M67.932 24.099c0 3.6 3.322 5.513 16.034 5.513 8.853 0 15.938-2.924 16.034-6.526v-.087c-.032-4.336-10.847-7-19.642-7-8.857 0-12.427 4.5-12.427 8.1"/>
        <path data-name="패스 574" d="M4.34 45.66a1.517 1.517 0 1 1 1.521-1.518A1.519 1.519 0 0 1 4.34 45.66m3.308-4.326H5.082l-.025-.006v-.889H3.63v.886l-.032.008H1.022v1.308h.831a2.883 2.883 0 0 0-.422 1.5 2.909 2.909 0 0 0 5.818 0 2.883 2.883 0 0 0-.422-1.5h.821z"/>
        <path data-name="패스 575" d="M36.578 45.66a1.517 1.517 0 1 1 1.521-1.518 1.519 1.519 0 0 1-1.521 1.518m3.308-4.326H37.32l-.025-.006v-.889h-1.427v.886l-.032.008H33.26v1.308h.831a2.883 2.883 0 0 0-.422 1.5 2.909 2.909 0 0 0 5.818 0 2.883 2.883 0 0 0-.422-1.5h.821z"/>
        <path data-name="패스 576" d="M92.803 45.66a1.517 1.517 0 1 1 1.522-1.518 1.519 1.519 0 0 1-1.522 1.518m3.308-4.326h-2.565l-.026-.006v-.889h-1.43v.886l-.032.008h-2.575v1.308h.831a2.883 2.883 0 0 0-.422 1.5 2.909 2.909 0 0 0 5.818 0 2.883 2.883 0 0 0-.422-1.5h.821z"/>
        <path data-name="패스 577" d="M92.083 46.687h.015v1.539h-2.606v1.307h7.827v3.563h1.426V40.829h-1.426v7.4h-3.8v-1.538h.016"/>
        <path data-name="패스 578" d="M35.857 46.458v1.79h-2.6v1.31h7.825v3.543h1.426v-7.975h1.23V43.82h-1.234v-2.99h-1.427v7.42h-3.793v-1.761z"/>
        <path data-name="패스 579" d="M71.623 53.101V48.87h3.374v4.231h1.426V40.83h-1.426v6.735h-7.5v1.306h2.7v4.231z"/>
        <path data-name="패스 580" d="M70.621 46.76a2.962 2.962 0 1 0-2.962-2.962 2.965 2.965 0 0 0 2.962 2.962m0-4.537a1.577 1.577 0 1 1-1.577 1.576 1.58 1.58 0 0 1 1.577-1.576"/>
        <path data-name="패스 581" d="M85.935 43.364h-1.222v1.307h1.222v1.986h-7.462v1.3h2.284v1.578h1.427v-1.578h5.178v-7.126h-1.427z"/>
        <path data-name="패스 582" d="M82.181 50.194h-1.426v2.91h6.605v-1.31h-5.179z"/>
        <path data-name="패스 583" d="M84.264 43.358a2.787 2.787 0 1 0-2.787 2.787 2.791 2.791 0 0 0 2.787-2.787m-4.158 0a1.373 1.373 0 1 1 1.371 1.371 1.371 1.371 0 0 1-1.371-1.371"/>
        <path data-name="패스 584" d="M10.237 40.845H8.812v8.7h1.425v-4.443h1.228v-1.307h-1.228z"/>
        <path data-name="패스 585" d="M4.7 48.864H3.273v4.251l6.967-.013v-1.306l-5.541.014z"/>
        <path data-name="패스 586" d="M20.336 53.101v-4.237h-2.8v-1.42h3.931v-1.308h-9.319v1.308h3.958v1.419h-2.827v1.307h5.63v2.931z"/>
        <path data-name="패스 587" d="M28.088 49.781v-2.339h3.673v-1.308h-9.315v1.308h4.216v2.339z"/>
        <path data-name="패스 588" d="M30.603 51.917h-5.3v-3.053h-1.426v4.238h6.726z"/>
        <path data-name="패스 589" d="M60.695 48.215H57.87v1.183h5.673v.667h-5.671v3.036h7.1v-1.184h-5.676v-.667h5.671v-3.035H62.12v-.765h3.985v-1.31h-9.406v1.31h3.995z"/>
        <path data-name="사각형 528" d="M53.867 40.827h1.279v12.274h-1.279z"/>
        <path data-name="패스 590" d="M53.243 53.101V40.827h-1.284v1.8h-1.51a3.122 3.122 0 1 0-.383 4.006h1.893v6.47zm-5.37-6.94a1.764 1.764 0 1 1 1.764-1.763 1.764 1.764 0 0 1-1.764 1.763m2.988-.835.008-.027a3.076 3.076 0 0 0 .133-.9l-.035-.457h.993v1.384z"/>
        <path data-name="사각형 529" d="M85.933 42.071h1.424v7.469h-1.424z"/>
        <path data-name="패스 591" d="M60.512 40.812s-3.7 4.22-3.763 4.287l1.876.007 2.84-3.238.017.019s2.809 3.2 2.809 3.21h1.889c-.307-.351-3.746-4.27-3.746-4.281z"/>
        <path data-name="패스 592" d="M19.039 45.086h1.423v-4.262h-7.127v1.306h5.7z"/>
        <path data-name="패스 593" d="M30.911 40.819h-7.437v4.264h7.436v-4.266m-1.424 2.96h-4.591v-1.649h4.592z"/>
    </g>
</svg>
