<svg xmlns="http://www.w3.org/2000/svg" width="102" height="45.115" viewBox="0 0 102 45.115">
    <defs>
        <clipPath id="d22k9wwpka">
            <path data-name="사각형 506" style="fill:none" d="M0 0h79.848v25.079H0z"/>
        </clipPath>
        <clipPath id="xn2z1jlyub">
            <path data-name="사각형 507" d="M0 0h101.614v25.444H0z"/>
        </clipPath>
    </defs>
    <g data-name="그룹 1413">
        <g data-name="그룹 1328">
            <g data-name="그룹 1325">
                <g data-name="그룹 1324" style="clip-path:url(#d22k9wwpka)" transform="translate(10.883 16.588)">
                    <path data-name="패스 463" d="M162.805 155.979h6.424v-18.854h6.954v-6.048h-20.331v6.048h6.954zm-34.448 0h6.424v-7.541h2.819l4.669 7.541h7.417l-5.53-8.68a7.819 7.819 0 0 0 4.768-7.648v-.071a8.015 8.015 0 0 0-2.053-5.8 7.7 7.7 0 0 0-3.013-1.992 12.716 12.716 0 0 0-4.536-.712h-10.96zm6.424-12.949v-5.976h4.205a4.026 4.026 0 0 1 2.55.729 2.656 2.656 0 0 1 .927 2.223v.071a2.744 2.744 0 0 1-.894 2.152 3.7 3.7 0 0 1-2.55.8zm-38.446 12.949h6.755l1.656-4.447h8.94l1.689 4.447h6.888l-9.868-25.079H106.2zm10.3-9.783 2.616-7.079 2.583 7.079z" transform="translate(-96.335 -130.9)" style="fill:#b2b2b3"/>
                </g>
            </g>
            <g data-name="그룹 1327">
                <g data-name="그룹 1326" transform="translate(0 4)" style="clip-path:url(#xn2z1jlyub)">
                    <path data-name="패스 464" d="M1.185 1.951v.533l-.8-.269zm.622-.693h-.039v.2c0 .01-.005.017-.007.017l-1.753.613c-.007 0-.007.034 0 .036l1.655.555c.1.029.1.034.1.056v.179a.11.11 0 0 0 .039 0v-.453h-.039v.2c0 .012-.015.01-.1-.019l-.438-.145v-.555l.535-.179s.007 0 .007.01v.208h.039zM1.8 3.067h-.513v.034a.45.45 0 0 1 .481.514v.264c0 .012 0 .017-.01.017H.921v-.09a.265.265 0 0 1 .284-.289c.007 0 .007-.032 0-.032H.6v.032a.264.264 0 0 1 .284.289v.09H.092c-.007 0-.01 0-.01-.017v-.257a.381.381 0 0 1 .431-.4c.007 0 .007-.036 0-.036H.05a.008.008 0 0 0-.007.011V4.38h.039v-.2c0-.01 0-.015.01-.015h1.666c.007 0 .01 0 .01.015v.2h.039v-1.3a.007.007 0 0 0-.007-.013M.486 5.134c.316 0 .383.073.383.3v.211H.092c-.007 0-.01 0-.01-.017v-.15c0-.214.092-.342.4-.342m1.277-.625s-.03.017-.027.022a.148.148 0 0 1 .055.126c0 .087-.067.14-.194.14h-.221c-.281 0-.483.18-.483.543a.451.451 0 0 0-.413-.473c-.244 0-.433.209-.433.553v.705h.039v-.2c0-.01 0-.015.01-.015h1.666c.007 0 .01 0 .01.015v.2h.039V5.38h-.04v.247c0 .012 0 .017-.01.017H.908v-.211c0-.209.077-.361.3-.361h.162c.356 0 .483-.158.483-.349a.282.282 0 0 0-.087-.213m-.84 2.08c.488 0 .675.063.792.182a.394.394 0 0 1 .095.286.378.378 0 0 1-.095.281c-.117.119-.3.184-.792.184a1.157 1.157 0 0 1-.794-.184.387.387 0 0 1-.092-.281.4.4 0 0 1 .092-.286 1.161 1.161 0 0 1 .794-.182m0-.284A.85.85 0 0 0 0 7.059a.848.848 0 0 0 .926.749.851.851 0 0 0 .923-.749.849.849 0 0 0-.923-.752m.881 1.424h-.039v.23a.046.046 0 0 1-.007.019L.75 8.705l-.563-.448c-.095-.078-.1-.085-.1-.1v-.182H.048v.456h.039v-.187c0-.015.007-.019.1.058l.732.587H.092c-.007 0-.01 0-.01-.017v-.2c0-.007-.039-.007-.039 0v.7c0 .007.039.007.039 0v-.2c0-.01 0-.015.01-.015h1.666c.007 0 .01 0 .01.015v.2c0 .007.039.007.039 0v-.7c0-.007-.039-.007-.039 0v.2c0 .012 0 .017-.01.017H.934l.826-.579s.007 0 .007.007v.213h.039z"/>
                    <path data-name="패스 465" d="M63.096 3.301c0 .008.008.012.024.012h.339v.053h-1.157v-.053h.3c.016 0 .024 0 .024-.012V2.159H61.52v1.142c0 .008.008.012.024.012h.3v.053h-1.157v-.053h.339c.016 0 .024 0 .024-.012V1.06c0-.008-.008-.012-.024-.012h-.339V.995h1.157v.053h-.3c-.016 0-.024 0-.024.012v1.046h1.106V1.06c0-.008-.008-.012-.024-.012h-.3V.995h1.157v.053h-.339c-.017 0-.024 0-.024.012z"/>
                    <path data-name="패스 466" d="M66.311 2.326c-.106 0-.178-.049-.178-.13s.046-.07.046-.123-.036-.08-.094-.08-.165.019-.245.256v1.05c0 .009.008.012.025.012h.207v.053h-.815v-.053h.207c.016 0 .024 0 .024-.012v-1.3c0-.008-.008-.012-.024-.012h-.207v-.052h.573l.01.01v.222a.347.347 0 0 1 .349-.261c.188 0 .312.1.312.246a.175.175 0 0 1-.189.17"/>
                    <path data-name="패스 467" d="M69.561 2.041c.08.088.106.224.112.495h-.695c.008-.271.043-.407.145-.495a.35.35 0 0 1 .246-.077.229.229 0 0 1 .192.077m-.192 1.354a.757.757 0 0 0 .62-.317l-.041-.032a.67.67 0 0 1-.579.3.349.349 0 0 1-.246-.077c-.112-.1-.146-.211-.146-.612v-.065h1.041l.011-.009a.655.655 0 0 0-.662-.668.742.742 0 1 0 0 1.483"/>
                    <path data-name="패스 468" d="M63.743 2.202c0-.118.152-.29.448-.29.434 0 .648.186.648.6v.68c0 .079.04.112.1.112a.16.16 0 0 0 .135-.086l.036.034a.3.3 0 0 1-.274.139.316.316 0 0 1-.326-.216.374.374 0 0 1-.393.216c-.335 0-.551-.114-.551-.351 0-.35.384-.431.531-.443.208-.017.394-.03.394-.1v-.2c0-.238-.107-.341-.3-.341-.094 0-.153.043-.153.141 0 .056.03.074.03.128s-.05.12-.168.12a.144.144 0 0 1-.157-.152m.438 1.128a.284.284 0 0 0 .307-.253v-.494a1.057 1.057 0 0 1-.323.069c-.125.021-.259.086-.259.393a.254.254 0 0 0 .275.285"/>
                    <path data-name="패스 469" d="M68.353 2.662a.76.76 0 0 1-.771.733.463.463 0 0 1-.321-.165v1.1c0 .008.008.012.024.012h.207v.052h-.815v-.052h.207c.016 0 .024 0 .024-.012V2.006c0-.008-.008-.012-.024-.012h-.207v-.052h.573l.01.01v.127a.462.462 0 0 1 .321-.166.774.774 0 0 1 .771.75m-.531-.622a.343.343 0 0 0-.24-.075.451.451 0 0 0-.321.173v1a.363.363 0 0 0 .321.21.343.343 0 0 0 .24-.076.771.771 0 0 0 .174-.605.819.819 0 0 0-.174-.622"/>
                    <path data-name="패스 470" d="M72.799 1.952c.039 0 .06-.016.064-.03h.059v.353h-.059a.335.335 0 0 0-.368-.311c-.186 0-.275.081-.275.209 0 .165.121.248.4.324s.478.216.478.431c0 .271-.225.467-.584.467-.214 0-.307-.1-.418-.1a.12.12 0 0 0-.116.073h-.059l.02-.47H72a.472.472 0 0 0 .513.442c.216 0 .339-.1.339-.275s-.145-.25-.41-.329-.439-.179-.439-.4a.47.47 0 0 1 .494-.426c.151 0 .165.04.3.04"/>
                    <path data-name="패스 471" d="M71.724 1.457a.18.18 0 0 1 .186-.174.187.187 0 0 1 .194.194.676.676 0 0 1-.375.5l-.035-.037a.734.734 0 0 0 .336-.352.156.156 0 0 1-.121.045.18.18 0 0 1-.186-.174"/>
                    <path data-name="패스 472" d="M71.255 2.326c-.106 0-.179-.049-.179-.13s.046-.07.046-.123-.036-.08-.094-.08-.165.019-.245.256v1.05c0 .009.008.012.024.012h.207v.053h-.815v-.053h.208c.017 0 .024 0 .024-.012v-1.3c0-.008-.008-.012-.024-.012h-.208v-.052h.573l.01.01v.222a.347.347 0 0 1 .349-.261c.188 0 .312.1.312.246a.175.175 0 0 1-.189.17"/>
                    <path data-name="패스 473" d="M6.721 12.26c3.649 0 5.1 2.5 5.1 6.3 0 3.277-1.292 6.066-4.321 6.066H5.47c-.148 0-.217-.042-.217-.126V12.258zM.021.673v.156h2.046c.148 0 .217.042.217.127V24.5c0 .084-.069.126-.217.126H.021v.156h7.63c4.915 0 7.537-2.061 7.537-6.222 0-2.88-1.55-5.812-6.442-6.4 4.156-.391 5.589-3.019 5.589-5.579 0-3.745-2.235-5.91-7.149-5.91zm6.7.158c3.236 0 4.553 2.477 4.553 5.754 0 3.069-1.318 5.52-4.553 5.52H5.249V.831z"/>
                    <path data-name="패스 474" d="m57.11 5.872 3.163 11.614h-6.131zm-4.729 17.874c-.2.8-.225.878-.426.878h-2.257v.156h5.111v-.156h-2.336c-.151 0-.126-.108.058-.837l1.572-6.146h6.224l1.9 6.983h-2.529v.156h8.506v-.156h-2.645L58.504 0h-.043z"/>
                    <path data-name="패스 475" d="m22.871 5.872 3.166 11.614h-6.131zm-4.728 17.874c-.2.8-.225.878-.426.878H15.46v.156h5.111v-.156h-2.34c-.151 0-.126-.108.058-.837l1.572-6.146h6.224l1.9 6.983h-2.528v.156h8.506v-.156h-2.644L24.266 0h-.047z"/>
                    <path data-name="패스 476" d="M89.741.831h2.1c3.235 0 4.15 2.477 4.15 5.754 0 3.069-.914 5.754-4.15 5.754h-2.1zm0 11.664h1.946c1.724 0 4.266.748 4.266 3.784v5.5c0 2.249 1.233 3.667 3.41 3.667 2.286 0 2.251-2.325 2.251-4v-1.771h-.155v1.767c0 1.908-.224 3.563-1.34 3.563-.988 0-1.2-.617-1.2-3.2v-5.527c0-2.555-2.057-3.492-5.234-3.862 3.958-.474 5.448-3.018 5.448-5.831 0-4.161-1.909-5.91-6.824-5.91h-7.793v.156h2.046c.148 0 .217.042.217.126V24.5c0 .084-.069.126-.217.126h-2.048v.156h7.165v-.156h-1.72c-.148 0-.217-.042-.217-.126z"/>
                    <path data-name="패스 477" d="m73.851 5.872 3.166 11.614h-6.131zm-4.728 17.874c-.2.8-.225.878-.426.878H66.44v.156h5.112v-.156h-2.34c-.151 0-.126-.108.058-.837l1.573-6.146h6.224l1.9 6.983h-2.529v.156h8.506v-.156h-2.645L75.246 0h-.043z"/>
                    <path data-name="패스 478" d="M38.777 24.502c-.025.056 0 .122.123.122h5.583c1.719 0 3.938-2.559 3.938-10.805v-.858h.155v11.824h-13.33L45.346.954c.025-.056 0-.122-.123-.122h-5.927c-1.556 0-3.815 2.86-3.815 10.806v.858h-.155V.675h13.563z"/>
                </g>
            </g>
        </g>
        <g data-name="그룹 1354">
            <g data-name="그룹 1188">
                <path data-name="사각형 489" style="fill:none" d="M0 0h102v45.115H0z"/>
            </g>
        </g>
    </g>
</svg>
