<svg xmlns="http://www.w3.org/2000/svg" width="135" height="46" viewBox="0 0 135 46">
    <defs>
        <clipPath id="t9myawnbva">
            <path data-name="사각형 504" d="M0 0h135v42.041H0z"/>
        </clipPath>
    </defs>
    <g data-name="그룹 1411">
        <g data-name="그룹 1349">
            <g data-name="그룹 1188">
                <path data-name="사각형 489" style="fill:none" d="M0 0h135v46H0z"/>
            </g>
        </g>
        <g data-name="그룹 1350">
            <g data-name="그룹 1320" style="clip-path:url(#t9myawnbva)" transform="translate(0 1)">
                <path data-name="패스 441" d="M5.21 28.109h3.042a6.4 6.4 0 0 0 3.824-.962 3.755 3.755 0 0 0 1.543-3.15 4.176 4.176 0 0 0-1.565-3.332 6.6 6.6 0 0 0-3.892-.968H0v.581h1.9v14.629H0v.581h7.312v-.581H5.21zm0-7.827H7.2a2.676 2.676 0 0 1 2.348.917 4.673 4.673 0 0 1 .536 2.706c0 1.924-.559 2.729-.894 2.974a3.559 3.559 0 0 1-1.923.582H5.21zm12.724-.716c-.38.045-.827.112-2.08.179-.917.045-1.677.045-2.281.045v.607h1.61v14.51h-1.61v.581h5.7v-.581h-1.361v-4.07c.022-1.274.045-2.706 1.319-3.578a2.164 2.164 0 0 1 1.275-.4c1.23 0 1.342 1.007 1.319 2.147v5.9H20.6v.581h5.479v-.58H24.6v-5.993A2.987 2.987 0 0 0 24 26.7a2.987 2.987 0 0 0-2.348-.827 4.561 4.561 0 0 0-3.712 1.9zm8.556 7.156h1.521v8.185H26.49v.581h5.747v-.581h-1.431V25.94c-1.051.067-1.632.112-2.191.156-.581.022-1.118.045-2.124.045zm1.006-4.7a1.61 1.61 0 1 0 1.61-1.61 1.6 1.6 0 0 0-1.61 1.61m9.533-2.46a16.427 16.427 0 0 1-2.415.224c-.8.022-1.543.022-1.968.022v.626h1.565v14.473h-1.565v.581H38.5v-.581h-1.471zm10.465 9.236A2.3 2.3 0 0 0 46 26.276a5.938 5.938 0 0 0-2.236-.4c-2.169 0-3.913 1.006-3.913 2.437a1.192 1.192 0 0 0 1.252 1.23 1.242 1.242 0 0 0 1.274-1.253 1.02 1.02 0 0 0-.112-.447c-.067-.179-.2-.313-.268-.492a.512.512 0 0 1-.067-.246c0-.2.335-.648 1.342-.648 1.5 0 1.565.76 1.565 1.7v1.767a9.2 9.2 0 0 0-4.472 1.208 2.9 2.9 0 0 0-1.3 2.348c0 .693.336 2.258 2.639 2.258a3.975 3.975 0 0 0 3.131-1.543 2.257 2.257 0 0 0 2.057 1.543 2.994 2.994 0 0 0 2.191-1.117l-.358-.492a1.2 1.2 0 0 1-.671.335c-.536 0-.559-.649-.559-1.163zm-2.661 3.466a2.061 2.061 0 0 1-.626 1.811 1.646 1.646 0 0 1-.984.358 1.565 1.565 0 0 1-1.523-1.717c0-1.99 1.946-2.1 3.131-2.169zm8.743-6.328c-1.655.067-2.952.2-4.316.2v.582h1.521v8.189h-1.52v.581h5.747v-.581h-1.431v-4.159a8.441 8.441 0 0 1 .089-1.812 2.743 2.743 0 0 1 2.348-2.039c1.364 0 1.364 1.208 1.364 2.46v5.55h-1.252v.581h5.5v-.581h-1.475v-5.97c0-.984 0-2.37-1.811-2.885a4.479 4.479 0 0 0-1.275-.179 4.524 4.524 0 0 0-1.7.336 4.13 4.13 0 0 0-1.788 1.388zm11.789-3.556h-.625c-1.3 2.818-2.683 3.511-3.69 3.981v.358h1.61l-.045 6.4c0 .984.022 2.639 2.281 2.639 2.326 0 2.862-1.61 3.175-2.684l-.626-.134c-.268.895-.626 1.633-1.3 1.633-.761 0-.783-.828-.783-1.365v-6.485h1.946v-.582h-1.942zm6.709-2.817c-.38.045-.828.112-2.08.179-.917.045-1.678.045-2.281.045v.61h1.61v14.51h-1.61v.581h5.7v-.581h-1.361v-4.07c.022-1.274.044-2.706 1.319-3.578a2.164 2.164 0 0 1 1.275-.4c1.23 0 1.342 1.007 1.319 2.147v5.9h-1.23v.581h5.479v-.58h-1.476v-5.993a2.577 2.577 0 0 0-2.952-3.041 4.559 4.559 0 0 0-3.712 1.9zm12.209 6.373a41.237 41.237 0 0 1-4.405.2v.582H81.4v8.189h-1.52v.581h6.194v-.581h-1.857v-4.248a5.3 5.3 0 0 1 .894-3.086s.716-.917 1.029-.917c.156 0 .313.112.313.223 0 .068-.067.135-.112.224a1.29 1.29 0 0 0-.291.827 1.35 1.35 0 0 0 1.431 1.32 1.436 1.436 0 0 0 1.5-1.521 1.822 1.822 0 0 0-1.968-1.856 2.59 2.59 0 0 0-2.079.983 6.646 6.646 0 0 0-.694 1.007zm15.452 4.673a5.016 5.016 0 0 0-5.233-4.74c-2.281 0-5.367 1.431-5.367 4.9 0 2.5 1.834 4.964 5.434 4.964a4.692 4.692 0 0 0 5.166-5.121m-3.042.023c.022 2.191.022 4.651-2.191 4.651a2.022 2.022 0 0 1-1.856-1.118c-.179-.313-.4-.783-.4-3.444 0-1.968.045-4.294 2.236-4.294a1.977 1.977 0 0 1 1.924 1.23c.134.29.268.6.29 2.974m7.357-4.7a23.236 23.236 0 0 1-4.338.2v.6h1.454v14.67h-1.456v.626h6.105v-.626h-1.811v-7.257a3.66 3.66 0 0 0 3.019 1.61 3.935 3.935 0 0 0 3.265-1.7 4.89 4.89 0 0 0 .984-3.086c0-3.644-2.482-5.1-4.383-5.1a3.491 3.491 0 0 0-2.885 1.632zm4.137 4.673c.045 2.706-.246 4.405-1.744 4.405a2.662 2.662 0 0 1-2.1-1.565 5.789 5.789 0 0 1-.47-2.616c0-2.5.827-3.31 1.341-3.712a1.933 1.933 0 0 1 1.14-.425c1.051 0 1.409.917 1.566 1.521a10.766 10.766 0 0 1 .269 2.392m3.466-3.89h1.52v8.19h-1.52v.581h5.742v-.581h-1.43V25.94c-1.051.067-1.633.112-2.191.156-.582.022-1.118.045-2.125.045zm1.007-4.7a1.61 1.61 0 1 0 1.61-1.61 1.6 1.6 0 0 0-1.61 1.61m14.423 8.185a4.966 4.966 0 0 0-1.207-2.952 4.527 4.527 0 0 0-3.333-1.386 4.775 4.775 0 0 0-4.948 4.933 4.857 4.857 0 0 0 5.121 4.965 4.533 4.533 0 0 0 4.248-2.84l-.559-.269c-.559.895-1.5 2.416-3.4 2.416-2.236 0-2.3-2.236-2.326-3.086-.022-.6 0-1.185 0-1.766zm-6.328-1.857c.089-.894.223-1.968 1.788-1.968 1.454 0 1.521 1.1 1.588 1.878v1.3h-3.4zm13.6.269v-2.853h-.626c-.045.492-.067.716-.47.716a.892.892 0 0 1-.514-.179 3.777 3.777 0 0 0-1.767-.425 2.847 2.847 0 0 0-3 3.019c0 2.191 1.588 2.706 3.019 3.175.917.268 2.527.47 2.527 1.655 0 .716-.738 1.431-1.9 1.431a3.063 3.063 0 0 1-2.08-.827 3.582 3.582 0 0 1-1.029-2.236h-.649v3.4h.649c-.022-.157-.045-.6.358-.6a2.023 2.023 0 0 1 .716.336 3.974 3.974 0 0 0 1.968.537A3.3 3.3 0 0 0 135 32.38c0-2.057-1.722-2.549-2.8-2.862l-.671-.179a5.262 5.262 0 0 1-1.565-.6 1.227 1.227 0 0 1-.425-.917 1.457 1.457 0 0 1 1.588-1.319 2.92 2.92 0 0 1 1.655.537 2.494 2.494 0 0 1 .939 1.588z"/>
                <path data-name="패스 442" d="M.045.134v.581h1.9V15.34h-1.9v.581h6.977c2.348-.022 5.166-.022 6.373-2.281a4.036 4.036 0 0 0 .447-1.9 3.878 3.878 0 0 0-3.2-3.8 13.119 13.119 0 0 0-1.675-.27 11.4 11.4 0 0 0 1.521-.291 3.383 3.383 0 0 0 2.616-3.332A3.436 3.436 0 0 0 11.293.899 8.19 8.19 0 0 0 7.335.134zm5.212 7.894h2.08a2.682 2.682 0 0 1 2.234.871 4.555 4.555 0 0 1 .626 2.84 4.975 4.975 0 0 1-.47 2.527 2.332 2.332 0 0 1-2.236 1.073H5.257zm0-7.268h1.742c1.834 0 2.773.447 2.773 3.4 0 2.617-.939 3.243-2.683 3.243H5.257zm13.125-.761a16.46 16.46 0 0 1-2.415.224c-.805.023-1.543.023-1.968.023v.626h1.565V15.34h-1.565v.581h5.858v-.581h-1.475zm12.321 11.048a5.017 5.017 0 0 0-5.233-4.741c-2.281 0-5.367 1.431-5.367 4.9 0 2.5 1.834 4.964 5.434 4.964a5 5 0 0 0 4.9-3.041 5.047 5.047 0 0 0 .269-2.08m-3.049.02c.022 2.191.022 4.652-2.192 4.652a2.022 2.022 0 0 1-1.851-1.122c-.179-.313-.4-.782-.4-3.444 0-1.968.045-4.294 2.236-4.294a1.977 1.977 0 0 1 1.921 1.238c.134.291.268.6.291 2.974m14.461-.022A5.016 5.016 0 0 0 36.89 6.31c-2.281 0-5.367 1.431-5.367 4.9 0 2.5 1.834 4.964 5.434 4.964a5 5 0 0 0 4.9-3.048 5.039 5.039 0 0 0 .268-2.08m-3.041.022c.022 2.191.022 4.652-2.192 4.652a2.021 2.021 0 0 1-1.858-1.121c-.179-.313-.4-.782-.4-3.444 0-1.968.045-4.294 2.236-4.294a1.977 1.977 0 0 1 1.921 1.238c.134.291.268.6.291 2.974m7.513-4.7a26.654 26.654 0 0 1-4.271.2v.582H43.8v8.185h-1.476v.581h5.633v-.581h-1.384v-4.741a4 4 0 0 1 .648-2.46 2.184 2.184 0 0 1 1.636-.805c1.207 0 1.342 1.051 1.342 2.326v5.68h-1.211v.581h5.255v-.581h-1.342v-4.361a3.77 3.77 0 0 1 .872-3 2.23 2.23 0 0 1 1.476-.671c1.275 0 1.275 1.1 1.275 2.236v5.792h-1.23v.581h5.389v-.581h-1.386V9.481c-.067-1.208-.09-3.176-3.041-3.176a3.631 3.631 0 0 0-3.355 1.924 3 3 0 0 0-3.086-1.945 3.916 3.916 0 0 0-3.22 1.722zM64.552-.001a23.035 23.035 0 0 1-2.415.247h-1.946v.626h1.566V15.34h-1.566v.581h4.338v-1.408a3.994 3.994 0 0 0 3.287 1.655 3.939 3.939 0 0 0 3.377-1.632 4.918 4.918 0 0 0 1.073-3.175c0-3.623-2.482-5.054-4.5-5.054a3.992 3.992 0 0 0-3.22 1.633zm4.629 11.024c0 2.482-.068 4.428-1.856 4.428a2.707 2.707 0 0 1-2.214-1.319 5.629 5.629 0 0 1-.671-2.863 6.184 6.184 0 0 1 .581-2.728 2.926 2.926 0 0 1 2.304-1.542c1.386 0 1.61 1.274 1.7 1.722a15.686 15.686 0 0 1 .157 2.3m13.372-.38a4.965 4.965 0 0 0-1.207-2.952 4.526 4.526 0 0 0-3.332-1.387 4.776 4.776 0 0 0-4.942 4.92 4.857 4.857 0 0 0 5.121 4.964 4.533 4.533 0 0 0 4.248-2.84l-.558-.268c-.56.894-1.5 2.415-3.4 2.415-2.237 0-2.3-2.236-2.326-3.086-.022-.6 0-1.185 0-1.766zm-6.33-1.853c.09-.894.224-1.968 1.79-1.968 1.454 0 1.52 1.1 1.588 1.878v1.301h-3.4zm10.913-2.415a41.237 41.237 0 0 1-4.405.2v.582h1.525v8.185h-1.525v.581h6.194v-.581H87.07v-4.249a5.3 5.3 0 0 1 .894-3.086s.716-.917 1.029-.917c.156 0 .313.112.313.224 0 .067-.067.134-.112.224a1.287 1.287 0 0 0-.291.827 1.349 1.349 0 0 0 1.431 1.319 1.436 1.436 0 0 0 1.5-1.521 1.823 1.823 0 0 0-1.968-1.856 2.591 2.591 0 0 0-2.08.984 6.636 6.636 0 0 0-.693 1.01zm7.111 8.7c-.738 0-1.387-.022-1.387-.738s.872-1.185 1.565-1.453a4.651 4.651 0 0 0 2.281.514c2.258 0 4.159-1.23 4.159-3.622a3 3 0 0 0-.492-1.633c.067-.313.134-.425.246-.425s.134 0 .313.224a.811.811 0 0 0 .648.291.937.937 0 0 0 .962-1.006 1 1 0 0 0-1.05-1.026 1.549 1.549 0 0 0-.894.313 1.91 1.91 0 0 0-.649 1.073 4.428 4.428 0 0 0-3.22-1.275c-2.035 0-4.316 1.141-4.316 3.578a3.306 3.306 0 0 0 1.521 2.706 2.977 2.977 0 0 0-2.281 2.84 2.128 2.128 0 0 0 .6 1.543 1.86 1.86 0 0 0 1.23.648c-.626.224-1.811.626-1.811 1.879 0 1.387 1.655 2.84 4.875 2.84 3.064 0 5.345-1.521 5.345-4.226a3 3 0 0 0-.559-1.9c-.806-1.163-1.633-1.14-3.243-1.14zm.872-5.3c0-1.588 0-2.93 1.52-2.93a1.3 1.3 0 0 1 1.252.738 5.5 5.5 0 0 1 .224 2.281c0 1.588 0 2.885-1.454 2.885-1.476 0-1.543-1.208-1.543-2.974m4.094 8.026c.47 0 1.588-.022 1.588 1.23 0 1.386-1.588 2.594-4.249 2.594-2.459 0-3.309-1.275-3.309-2.281a2.064 2.064 0 0 1 .76-1.543z"/>
            </g>
        </g>
    </g>
</svg>
