<svg xmlns="http://www.w3.org/2000/svg" width="90" height="45" viewBox="0 0 90 45">
    <defs>
        <clipPath id="9v7p31d2za">
            <path data-name="사각형 499" d="M0 0h90v28.373H0z"/>
        </clipPath>
    </defs>
    <g data-name="그룹 1409">
        <g data-name="그룹 1317">
            <g data-name="그룹 1316" style="clip-path:url(#9v7p31d2za)" transform="translate(0 8.476)">
                <path data-name="패스 415" d="M6.025 19.219H0V.999h6.025c5.955 0 9.154 3.036 9.154 9.107s-3.2 9.107-9.154 9.107m-.257-2.756c3.246 0 6.282-.981 6.282-6.352S9.014 3.759 5.768 3.759H3.106v12.7zm11.98-14.682a1.775 1.775 0 0 1 3.55 0 1.775 1.775 0 1 1-3.55 0m.233 3.806h3.083v13.638h-3.083zm9.481 13.638H24.38V5.581h2.966v1.8a5.24 5.24 0 0 1 4.254-2.15c2.872 0 4.273 1.891 4.273 5.324v8.664h-3.086v-8.407c0-1.821-.49-2.989-2.359-2.989a2.98 2.98 0 0 0-2.966 3.176zm10.556-6.82c0-4.484 2.452-7.169 6.235-7.169s5.908 2.545 5.908 6.842v1.168H41.03c.187 2.335 1.191 3.83 3.456 3.83 1.7 0 2.569-.654 2.8-2.032h2.756c-.3 2.989-2.382 4.53-5.6 4.53-3.993 0-6.422-2.452-6.422-7.169m3.036-1.448h6.235c-.091-1.914-.983-3.222-3.038-3.222-2.078 0-2.942 1.285-3.2 3.223M59.6 15.436c0-1.261-.747-1.7-2.943-1.962-3.176-.4-4.647-1.518-4.647-4.2 0-2.639 2.312-4.04 5.091-4.04 3.082 0 4.927 1.378 5.161 4.53H59.5A2.177 2.177 0 0 0 57 7.659c-1.261 0-2.265.514-2.265 1.658 0 1 .514 1.495 2.709 1.752 3.246.4 4.81 1.495 4.881 4.133.07 2.9-2.008 4.367-5.254 4.367-3.176 0-4.974-1.541-5.208-4.53h2.756a2.24 2.24 0 0 0 2.545 2.1c1.471 0 2.429-.49 2.429-1.7m4.39-3.036c0-4.484 2.452-7.169 6.235-7.169s5.908 2.545 5.908 6.842v1.168H67c.187 2.335 1.191 3.83 3.456 3.83 1.7 0 2.569-.654 2.8-2.032h2.756c-.3 2.989-2.382 4.53-5.6 4.53-3.993 0-6.422-2.452-6.422-7.169m3.036-1.448h6.235c-.094-1.915-.981-3.223-3.036-3.223-2.078 0-2.942 1.285-3.2 3.223m22.975-.4v8.664h-3.082v-8.407c0-1.821-.49-2.989-2.359-2.989a2.98 2.98 0 0 0-2.966 3.176v8.22h-3.082V5.581h2.966v1.8a5.241 5.241 0 0 1 4.25-2.148C88.6 5.231 90 7.122 90 10.555"/>
                <path data-name="사각형 498" d="M0 23.796h90v4.577H0z"/>
            </g>
        </g>
        <g data-name="그룹 1345">
            <g data-name="그룹 1188">
                <path data-name="사각형 489" style="fill:none" d="M0 0h90v45H0z"/>
            </g>
        </g>
    </g>
</svg>
