<svg xmlns="http://www.w3.org/2000/svg" width="210" height="48" viewBox="0 0 210 48">
    <defs>
        <clipPath id="20ot8d5jfa">
            <path data-name="사각형 524" style="fill:none" d="M0 0h210v27.67H0z"/>
        </clipPath>
    </defs>
    <g data-name="그룹 1405">
        <g data-name="그룹 1360">
            <g data-name="그룹 1188">
                <path data-name="사각형 489" style="fill:none" d="M0 0h210v48H0z"/>
            </g>
            <g data-name="그룹 1361">
                <path data-name="패스 553" d="M103.782 5.5v7.487h-8.806V5.5h-4.853v19.657h4.853v-7.9h8.806v7.9h4.852V5.5h-4.852z" transform="translate(-23.247 8.505)" style="fill:#00255a"/>
                <path data-name="패스 554" d="m134.032 5.5-5.077 7.782-5.072-7.782h-5.726l8.378 12.847v6.807h4.848V18.35l8.378-12.85h-5.73z" transform="translate(-30.452 8.505)" style="fill:#00255a"/>
                <g data-name="그룹 1362">
                    <g data-name="그룹 1361" style="clip-path:url(#20ot8d5jfa)" transform="translate(0 10)">
                        <path data-name="패스 555" d="M164.379 5.5v14.562a1 1 0 0 1-1.05 1h-7.91V5.5h-4.934v19.86h14.58a4.328 4.328 0 0 0 3.1-1.094 3.942 3.942 0 0 0 1.136-2.963V5.5h-4.926z" transform="translate(-39.001 -1.598)" style="fill:#00255a"/>
                        <path data-name="패스 556" d="M196.649 5.5h-14.585v19.86H187V9.8h7.915a1 1 0 0 1 1.045.994v14.57h4.928v-15.8a3.944 3.944 0 0 0-1.14-2.964 4.314 4.314 0 0 0-3.1-1.1" transform="translate(-47.185 -1.598)" style="fill:#00255a"/>
                        <path data-name="패스 557" d="M228.228 5.5h-14.583v19.86h14.583a4.308 4.308 0 0 0 3.092-1.094 3.928 3.928 0 0 0 1.142-2.964V9.564A3.93 3.93 0 0 0 231.32 6.6a4.311 4.311 0 0 0-3.092-1.1m-.694 5.327v9.2a1.022 1.022 0 0 1-1.054 1.027h-7.908V9.8h7.877a1.013 1.013 0 0 1 1.085 1.028" transform="translate(-55.37 -1.598)" style="fill:#00255a"/>
                        <path data-name="패스 558" d="M249.166 5.5a4.286 4.286 0 0 0-3.094 1.1 3.919 3.919 0 0 0-1.141 2.965v15.8h4.922V19.22h8.963v6.144h4.927V5.5zm9.649 4.3v5.12h-8.963v-4.106a1.026 1.026 0 0 1 1.053-1.014z" transform="translate(-63.478 -1.598)" style="fill:#00255a"/>
                        <path data-name="사각형 523" transform="translate(205.068 3.906)" style="fill:#00255a" d="M0 0h4.932v19.86H0z"/>
                        <path data-name="패스 559" d="M28.2 27.67c15.576 0 28.2-6.193 28.2-13.837S43.777 0 28.2 0 0 6.193 0 13.833 12.626 27.67 28.2 27.67m5.308-6.789c-.47 1.046-1.279 3.278-3.14 4.166a4.892 4.892 0 0 1-1.882.414h-.282a51.059 51.059 0 0 1-14.1-1.875c-.035-.009-.127-.045-.157-.056-.373-.119-.565-.286-.565-.488a.593.593 0 0 1 .231-.44c.056-.055.143-.124.256-.218a33.459 33.459 0 0 1 9.07-4.654 45.934 45.934 0 0 1 6.634-2.03c1.431-.289 6.741-1.067 3.937 5.177M47.758 6.936a.572.572 0 0 1 .476-.323 1.011 1.011 0 0 1 .587.184c3.312 1.953 5.275 4.391 5.275 7.032 0 4.772-6.4 8.872-15.557 10.666-.588.11-.979.107-1.113-.035a.328.328 0 0 1 0-.429 2.233 2.233 0 0 1 .244-.325c4.987-5.632 8.783-13.935 9.863-16.333.082-.166.163-.329.226-.437m-24.782-.178c.47-1.042 1.28-3.274 3.14-4.161A4.842 4.842 0 0 1 28 2.183h.279a51 51 0 0 1 14.11 1.877c.029.009.124.044.153.055.373.119.567.284.567.489a.608.608 0 0 1-.233.439 4.669 4.669 0 0 1-.256.216 33.389 33.389 0 0 1-9.069 4.652 45.9 45.9 0 0 1-6.634 2.027c-1.436.29-6.744 1.064-3.94-5.18m-5.115-3.59c.589-.109.977-.108 1.116.035a.345.345 0 0 1 0 .425 2.543 2.543 0 0 1-.246.324C13.744 9.584 9.947 17.89 8.867 20.29a5.896 5.896 0 0 1-.228.436.563.563 0 0 1-.472.324 1.041 1.041 0 0 1-.589-.183C4.269 18.911 2.3 16.474 2.3 13.832c0-4.772 6.4-8.874 15.562-10.664" style="fill:#00255a"/>
                    </g>
                </g>
            </g>
        </g>
    </g>
</svg>
