<svg xmlns="http://www.w3.org/2000/svg" width="120" height="38.723" viewBox="0 0 120 38.723">
    <defs>
        <clipPath id="wvvn00yh6a">
            <path data-name="사각형 518" style="fill:none" d="M0 0h120v38.723H0z"/>
        </clipPath>
    </defs>
    <g data-name="그룹 1410">
        <g data-name="그룹 1343" style="clip-path:url(#wvvn00yh6a)">
            <path data-name="패스 521" d="M72.28 18.449c-7.427.875-6.107 7.733-6.107 7.733s2.13 2.2 2.477 2.515c0 0-1.234-6.378 4.628-7.166s17.44-2.331 17.44-2.331L88.2 16.345z" transform="translate(-42.544 -10.523)" style="fill:#cd001b"/>
            <path data-name="패스 522" d="M18.438 49.928c7.427-.875 6.107-7.733 6.107-7.733s-2.13-2.2-2.477-2.515c0 0 1.234 6.378-4.628 7.166S0 49.176 0 49.176l2.522 2.857z" transform="translate(0 -25.546)" style="fill:#cd001b"/>
            <path data-name="패스 523" d="M84.9 35.361c-7.427.875-6.107 7.733-6.107 7.733s2.13 2.2 2.477 2.515c0 0-1.234-6.378 4.628-7.166s17.439-2.329 17.439-2.329l-2.522-2.857z" transform="translate(-50.669 -21.411)" style="fill:#1f5d2a"/>
            <path data-name="패스 524" d="M31.059 66.84c7.427-.875 6.107-7.733 6.107-7.733s-2.13-2.2-2.477-2.515c0 0 1.234 6.378-4.628 7.166s-17.439 2.329-17.439 2.329l2.522 2.857z" transform="translate(-8.125 -36.434)" style="fill:#1f5d2a"/>
            <path data-name="패스 525" d="M75.051 0 59.176 2.134a6.367 6.367 0 0 0-4.985 3.1c-2.151 4.112 1.761 7.088 1.761 7.088s-1.21-6.384 4.628-7.166l17-2.272" transform="translate(-34.472)" style="fill:#13236a"/>
            <path data-name="패스 526" d="M29.935 86.433 45.81 84.3a6.368 6.368 0 0 0 4.985-3.1c2.151-4.112-1.761-7.088-1.761-7.088s1.21 6.384-4.628 7.166l-17 2.272" transform="translate(-17.645 -47.71)" style="fill:#fcb121"/>
            <path data-name="선 305" transform="translate(26.56 2.889)" style="fill:#cd001b" d="M0 2.185 16.274 0"/>
            <path data-name="패스 527" d="M163.711 80.215a1.529 1.529 0 0 1 .471.072 3.5 3.5 0 0 1 .425.167l.234-.54a2.5 2.5 0 0 0-1.125-.255 1.981 1.981 0 0 0-1.007.247 1.618 1.618 0 0 0-.656.712 2.444 2.444 0 0 0-.227 1.084 2.21 2.21 0 0 0 .467 1.511 1.692 1.692 0 0 0 1.339.528 2.977 2.977 0 0 0 1.059-.177v-.557q-.255.079-.492.129a2.342 2.342 0 0 1-.489.05 1.089 1.089 0 0 1-.892-.375 2.082 2.082 0 0 1 .012-2.2 1.069 1.069 0 0 1 .88-.4" transform="translate(-104.184 -51.284)" style="fill:#050605"/>
            <path data-name="패스 528" d="M174.672 82.325q0 .964-.918.964a.941.941 0 0 1-.7-.234 1 1 0 0 1-.228-.725v-2.512h-.652v2.559a1.415 1.415 0 0 0 .41 1.075 1.6 1.6 0 0 0 1.149.391 1.9 1.9 0 0 0 .854-.178 1.26 1.26 0 0 0 .546-.508 1.525 1.525 0 0 0 .188-.77v-2.569h-.649z" transform="translate(-110.845 -51.387)" style="fill:#050605"/>
            <path data-name="패스 529" d="M184.511 79.818h-.649v3.971h2.33v-.557h-1.681z" transform="translate(-118.371 -51.387)" style="fill:#050605"/>
            <path data-name="패스 530" d="M191.075 80.375h1.168v3.414h.649v-3.414h1.168v-.557h-2.985z" transform="translate(-123.014 -51.387)" style="fill:#050605"/>
            <path data-name="패스 531" d="M203.562 82.325q0 .964-.918.964a.94.94 0 0 1-.7-.234 1 1 0 0 1-.228-.725v-2.512h-.652v2.559a1.415 1.415 0 0 0 .41 1.075 1.6 1.6 0 0 0 1.149.391 1.9 1.9 0 0 0 .854-.178 1.26 1.26 0 0 0 .546-.508 1.525 1.525 0 0 0 .188-.77v-2.569h-.649z" transform="translate(-129.445 -51.387)" style="fill:#050605"/>
            <path data-name="패스 532" d="M215.381 80.975a1.034 1.034 0 0 0-.369-.869 1.842 1.842 0 0 0-1.138-.288h-1.122v3.971h.649V82.2h.641l.951 1.586h.739l-1.122-1.757a1.086 1.086 0 0 0 .772-1.056m-1.529.69h-.453v-1.3h.429a1.2 1.2 0 0 1 .663.147.538.538 0 0 1 .22.483.61.61 0 0 1-.2.5 1.029 1.029 0 0 1-.657.168" transform="translate(-136.97 -51.387)" style="fill:#050605"/>
            <path data-name="패스 533" d="M222.733 83.788h2.246v-.551h-1.6V81.99h1.5v-.543h-1.5v-1.081h1.6v-.549h-2.246z" transform="translate(-143.396 -51.387)" style="fill:#050605"/>
            <path data-name="패스 534" d="M235.5 83.788h.644v-1.63h1.5v-.551h-1.5v-1.241h1.6v-.549H235.5z" transform="translate(-151.618 -51.387)" style="fill:#050605"/>
            <path data-name="패스 535" d="M245.135 79.642a1.787 1.787 0 0 0-1.384.527 2.153 2.153 0 0 0-.485 1.51 2.186 2.186 0 0 0 .482 1.517 2.037 2.037 0 0 0 2.754 0 2.589 2.589 0 0 0 0-3.015 1.751 1.751 0 0 0-1.369-.535M246 82.8a1.205 1.205 0 0 1-1.75 0 1.782 1.782 0 0 1-.3-1.112 1.763 1.763 0 0 1 .3-1.108 1.054 1.054 0 0 1 .881-.378 1.033 1.033 0 0 1 .871.378 2.254 2.254 0 0 1 0 2.224" transform="translate(-156.615 -51.274)" style="fill:#050605"/>
            <path data-name="패스 536" d="M258.506 82.325q0 .964-.918.964a.94.94 0 0 1-.7-.234 1 1 0 0 1-.228-.725v-2.512h-.652v2.559a1.415 1.415 0 0 0 .41 1.075 1.6 1.6 0 0 0 1.149.391 1.9 1.9 0 0 0 .854-.178 1.257 1.257 0 0 0 .546-.508 1.522 1.522 0 0 0 .189-.77v-2.569h-.649z" transform="translate(-164.818 -51.387)" style="fill:#050605"/>
            <path data-name="패스 537" d="M270.409 81.9q0 .22.016.612t.022.455h-.016l-1.947-3.148h-.784v3.971h.589v-2.065q0-.418-.038-.923l-.014-.177h.022l1.953 3.164h.8v-3.971h-.594z" transform="translate(-172.343 -51.387)" style="fill:#050605"/>
            <path data-name="패스 538" d="M281.154 79.818h-1.227v3.971h1.111a2.192 2.192 0 0 0 1.573-.52 1.979 1.979 0 0 0 .546-1.5 1.907 1.907 0 0 0-.527-1.437 2.03 2.03 0 0 0-1.475-.511m-.117 3.425h-.462v-2.885h.562q1.334 0 1.334 1.426a1.277 1.277 0 0 1-1.434 1.456" transform="translate(-180.217 -51.387)" style="fill:#050605"/>
            <path data-name="패스 539" d="m291.4 79.772-1.486 3.987h.684l.388-1.1h1.518l.4 1.1h.69l-1.486-3.987zm-.223 2.325.359-1.035a6.093 6.093 0 0 0 .214-.731q.027.108.1.342t.113.342l.372 1.081z" transform="translate(-186.648 -51.357)" style="fill:#050605"/>
            <path data-name="패스 540" d="M300.46 80.375h1.168v3.414h.649v-3.414h1.168v-.557h-2.985z" transform="translate(-193.437 -51.387)" style="fill:#050605"/>
            <path data-name="사각형 515" transform="translate(110.617 28.431)" style="fill:#050605" d="M0 0h.649v3.971H0z"/>
            <path data-name="패스 541" d="M316.633 79.642a1.786 1.786 0 0 0-1.384.527 2.152 2.152 0 0 0-.485 1.51 2.186 2.186 0 0 0 .482 1.517 2.037 2.037 0 0 0 2.754 0 2.589 2.589 0 0 0 0-3.015 1.751 1.751 0 0 0-1.369-.535m.869 3.154a1.205 1.205 0 0 1-1.75 0 2.225 2.225 0 0 1 0-2.221 1.054 1.054 0 0 1 .881-.378 1.033 1.033 0 0 1 .871.378 2.257 2.257 0 0 1 0 2.224" transform="translate(-202.646 -51.274)" style="fill:#050605"/>
            <path data-name="패스 542" d="M330.318 79.818V81.9c0 .147.005.351.016.612s.018.413.022.455h-.016l-1.947-3.148h-.788v3.971h.589v-2.065q0-.418-.038-.924l-.013-.177h.021l1.953 3.164h.8v-3.97z" transform="translate(-210.913 -51.387)" style="fill:#050605"/>
            <path data-name="사각형 516" transform="translate(58.292 6.267)" style="fill:#1a1818" d="M0 0h2.81v15.843H0z"/>
            <path data-name="패스 543" d="M190.923 17.6h2.81v13.474h6.579v2.364h-9.389z" transform="translate(-122.917 -11.328)" style="fill:#1a1818"/>
            <path data-name="패스 544" d="m229.107 31.03 1.938-1.419a2.779 2.779 0 0 0 2.471 1.676c1.482 0 2.248-.8 2.248-3.062v-10.63h2.81v10.872c0 2.9-1.424 5.261-4.729 5.261a5.005 5.005 0 0 1-4.738-2.7" transform="translate(-147.499 -11.328)" style="fill:#1a1818"/>
            <path data-name="사각형 517" transform="translate(97.902 6.267)" style="fill:#1a1818" d="M0 0h2.81v15.843H0z"/>
            <path data-name="패스 545" d="M302.128 17.595h2.888l4.922 8.9 1.637 3.382h.1c-.135-1.638-.358-3.643-.358-5.407v-6.88h2.674v15.848H311.1l-4.922-8.92-1.638-3.367h-.1c.136 1.676.358 3.585.358 5.349v6.938h-2.674z" transform="translate(-194.511 -11.328)" style="fill:#1a1818"/>
        </g>
    </g>
</svg>
