<svg xmlns="http://www.w3.org/2000/svg" width="265" height="46" viewBox="0 0 265 46">
    <defs>
        <clipPath id="1vkkk72aea">
            <path data-name="사각형 497" d="M0 0h265v41.103H0z"/>
        </clipPath>
    </defs>
    <g data-name="그룹 1406">
        <g data-name="그룹 1313">
            <g data-name="그룹 1188">
                <path data-name="사각형 489" style="fill:none" d="M0 0h265v46H0z"/>
            </g>
        </g>
        <g data-name="그룹 1312">
            <path data-name="패스 402" d="M0 2v16.493h10.794v-3.3h-7.2V2z"/>
            <g data-name="그룹 1311">
                <g data-name="그룹 1310" style="clip-path:url(#1vkkk72aea)" transform="translate(0 2.001)">
                    <path data-name="패스 403" d="M28.396 9.861c0 1.955.738 2.324 1.846 2.324.956 0 1.759-.369 1.759-2.258V-.001h3.171v9.514c0 3.735-1.737 5.515-4.952 5.515-3.127 0-5.04-1.476-5.04-5.515V-.001h3.215z"/>
                    <path data-name="패스 404" d="m55.815 10.989 1.52-10.99h3.692v14.769h-2.649V2.649h-.131l-1.781 12.12h-1.477l-1.781-12.12h-.13v12.12h-2.65V-.001h3.893l1.412 10.99z"/>
                    <path data-name="패스 405" d="m81.148 3.171-1.651 6.5h3.345l-1.608-6.5zm2.3 8.949h-4.581l-.673 2.649h-3.019L79.542 0h3.388l4.451 14.77h-3.257z"/>
                    <path data-name="패스 406" d="M28.745 40.847h-3.216V26.073h9.709v2.954h-6.493v3.475h5.516v2.737h-5.516z"/>
                    <path data-name="패스 407" d="M58.03 33.283c0-4.126-1.26-4.626-2.259-4.626s-2.325.5-2.325 4.626c0 3.759.8 4.974 2.325 4.974s2.259-1.215 2.259-4.974m-7.82 0c0-5.3 2.693-7.471 5.56-7.471s5.472 2.173 5.472 7.471-2.171 7.822-5.472 7.822c-3.28 0-5.56-2.52-5.56-7.82"/>
                    <path data-name="패스 408" d="M79.497 35.933c0 1.955.74 2.324 1.847 2.324.956 0 1.759-.369 1.759-2.258v-9.928h3.173v9.514c0 3.735-1.739 5.516-4.953 5.516-3.127 0-5.04-1.477-5.04-5.516v-9.514h3.214z"/>
                    <path data-name="패스 409" d="M111.695 40.847h-3.171l-3.519-10.5v10.5h-3.04V26.073h3.171l3.517 10.491V26.073h3.042z"/>
                    <path data-name="패스 410" d="M131.338 37.887c1.695 0 3.149-.413 3.149-4.54 0-4-1.585-4.321-3.041-4.321h-1.021v8.861zm6.32-4.54c0 5.8-2.78 7.494-6.169 7.494h-4.3v-14.77h4.341c3.54 0 6.125 2.043 6.125 7.276"/>
                    <path data-name="패스 411" d="m157.801 29.246-1.652 6.491h3.345l-1.607-6.5zm2.3 8.949h-4.583l-.669 2.651h-3.019l4.367-14.769h3.388l4.449 14.769h-3.257z"/>
                    <path data-name="패스 412" d="M177.813 26.072h11.337v2.954h-4.061v11.82h-3.214v-11.82h-4.062z"/>
                    <path data-name="패스 413" d="M236.887 33.283c0-4.126-1.259-4.626-2.259-4.626s-2.324.5-2.324 4.626c0 3.759.805 4.974 2.324 4.974s2.259-1.215 2.259-4.974m-7.82 0c0-5.3 2.693-7.471 5.56-7.471s5.472 2.173 5.472 7.471-2.169 7.822-5.472 7.822c-3.28 0-5.56-2.52-5.56-7.82"/>
                    <path data-name="패스 414" d="M265.002 40.847h-3.171l-3.52-10.5v10.5h-3.042V26.073h3.171l3.517 10.491V26.073h3.045z"/>
                    <path data-name="사각형 496" d="M207.428 26.035h3.225v14.769h-3.225z"/>
                </g>
            </g>
        </g>
    </g>
</svg>
