<svg xmlns="http://www.w3.org/2000/svg" width="74" height="46" viewBox="0 0 74 46">
    <defs>
        <clipPath id="6itadpjtca">
            <path data-name="사각형 525" d="M0 0h74v19.704H0z"/>
        </clipPath>
    </defs>
    <g data-name="그룹 1415">
        <g data-name="그룹 1365">
            <path data-name="패스 560" d="M0 13.496v18.711h15.706v-4.8h-9.26V13.496z"/>
            <g data-name="그룹 1364">
                <g data-name="그룹 1363" style="clip-path:url(#6itadpjtca)" transform="translate(0 12.999)">
                    <path data-name="패스 561" d="M33.636 11.985c0 5.217-2.826 7.719-8.586 7.719s-8.614-2.5-8.614-7.719V.448h5.813v10.247c0 1.924 0 4.32 2.827 4.32 2.747 0 2.747-2.4 2.747-4.32V.448h5.812z"/>
                    <path data-name="패스 562" d="M42.452 12.934a3.467 3.467 0 0 0 .211 1.238c.423 1.133 1.692 1.369 2.776 1.369.95 0 2.4-.315 2.4-1.712 0-.974-.82-1.238-4.071-2.16-2.985-.843-6.393-1.659-6.393-5.453C37.38 1.871 41.107 0 44.989 0c4.093 0 7.715 1.554 7.875 6.138h-5.5a1.438 1.438 0 0 0-.687-1.5 3.013 3.013 0 0 0-1.717-.475c-.793 0-2.089.21-2.089 1.264.106 1.345 2.8 1.635 5.47 2.371s5.312 1.976 5.312 5.428c0 4.9-4.52 6.48-8.72 6.48-2.139 0-8.242-.764-8.3-6.77z"/>
                    <path data-name="패스 563" d="M68.189.448V6.98h-5.446V.448h-5.812v18.808h5.812V11.8h5.446v7.456h5.815V.448z"/>
                </g>
            </g>
        </g>
        <g data-name="그룹 1366">
            <g data-name="그룹 1188">
                <path data-name="사각형 489" style="fill:none" d="M0 0h74v46H0z"/>
            </g>
        </g>
    </g>
</svg>
