<svg xmlns="http://www.w3.org/2000/svg" width="72" height="72" viewBox="0 0 72 72">
    <defs>
        <clipPath id="rqhgxl02na">
            <path data-name="사각형 531" style="fill:none" d="M0 0h72v72H0z"/>
        </clipPath>
    </defs>
    <g data-name="그룹 1468" style="clip-path:url(#rqhgxl02na)">
        <path data-name="패스 595" d="M36 0a36 36 0 1 0 36 36A36.041 36.041 0 0 0 36 0m35.553 36A35.553 35.553 0 1 1 36 .447 35.593 35.593 0 0 1 71.553 36M25.341 56.152a.192.192 0 0 1-.3.208l-.648-.413c-.075-.048-.117-.039-.165.036l-4.346 6.8 1.2.764a1.752 1.752 0 0 0 .707.3.908.908 0 0 0 .531-.122 6.876 6.876 0 0 0 .833-.612l.008-.006a.256.256 0 0 1 .284-.01.151.151 0 0 1 .068.1.222.222 0 0 1-.043.167.421.421 0 0 1-.077.1l-1.18 1.279-5.982-3.821.026-.065.643-1.547a.434.434 0 0 1 .054-.109.224.224 0 0 1 .134-.11.153.153 0 0 1 .116.022.253.253 0 0 1 .111.26v.01A6.9 6.9 0 0 0 17.1 60.4a.891.891 0 0 0 .113.533 1.749 1.749 0 0 0 .571.515l1.2.763 4.346-6.8c.048-.075.039-.117-.036-.165l-.647-.413a.2.2 0 0 1 .064-.357.189.189 0 0 1 .148.025l2.4 1.533a.193.193 0 0 1 .085.124M13.327 39.2l-7.952.162c-.089 0-.119.033-.117.122l.013.655a.2.2 0 0 1-.394.008L4.844 38.5l.034-.027 6.949-5.221-6.573.134c-.089 0-.119.033-.117.122l.018.881a.183.183 0 0 1-.193.2.2.2 0 0 1-.139-.056.192.192 0 0 1-.062-.138l-.046-2.281a.2.2 0 0 1 .193-.2.2.2 0 0 1 .139.055.191.191 0 0 1 .061.138l.013.655a.137.137 0 0 0 .028.092.131.131 0 0 0 .087.025l8.471-.172.009.464-.033.027-7.306 5.633 6.94-.141a.138.138 0 0 0 .093-.028.14.14 0 0 0 .024-.094l-.018-.881a.2.2 0 0 1 .193-.2.2.2 0 0 1 .139.055.2.2 0 0 1 .061.138l.046 2.281a.2.2 0 0 1-.193.2.184.184 0 0 1-.2-.193l-.013-.656c0-.086-.032-.117-.116-.117l-.008-.07zm.346 18.6a.2.2 0 0 1-.148.326h-.012a.2.2 0 0 1-.136-.066l-1.727-1.981a.2.2 0 0 1 .018-.278.187.187 0 0 1 .144-.047.19.19 0 0 1 .134.065l.432.493c.059.067.1.07.169.011l5.983-5.241a.1.1 0 0 0 .011-.168l-.432-.493a.2.2 0 0 1 .3-.259l1.727 1.972a.191.191 0 0 1 .047.143.193.193 0 0 1-.066.135.2.2 0 0 1-.132.055h-.015a.2.2 0 0 1-.134-.074L19.4 51.9c-.059-.067-.1-.07-.169-.011l-5.983 5.24a.1.1 0 0 0-.011.168zm1.268-8.647a4.055 4.055 0 0 0 .982-1.942 3.779 3.779 0 0 0-1.593-3.77 4.015 4.015 0 0 0-2.075-.645 5.612 5.612 0 0 0-2.413.477 5.6 5.6 0 0 0-2.024 1.4 4.014 4.014 0 0 0-.984 1.927 3.779 3.779 0 0 0 1.593 3.77 4.053 4.053 0 0 0 2.077.65h.209a5.671 5.671 0 0 0 2.206-.476 5.54 5.54 0 0 0 2.022-1.4m.439-2.363a3.6 3.6 0 0 1-1.019 1.49 6.548 6.548 0 0 1-1.9 1.185 6.533 6.533 0 0 1-2.176.538c-.089 0-.178.007-.265.007a3.453 3.453 0 0 1-1.52-.315 2.189 2.189 0 0 1-1.124-2.661 3.532 3.532 0 0 1 1.024-1.49 6.629 6.629 0 0 1 1.905-1.18 6.634 6.634 0 0 1 2.174-.544c.094-.005.186-.008.276-.008a3.388 3.388 0 0 1 1.5.316 2.189 2.189 0 0 1 1.124 2.661m48.943-2.61a5.541 5.541 0 0 0-2.046-1.37 5.7 5.7 0 0 0-2.122-.439c-.1 0-.2 0-.3.009a4.057 4.057 0 0 0-2.065.687 3.781 3.781 0 0 0-1.526 3.8 4.017 4.017 0 0 0 1.018 1.92 5.6 5.6 0 0 0 2.048 1.362 5.746 5.746 0 0 0 2.14.443q.141 0 .281-.008a4.02 4.02 0 0 0 2.064-.682 3.779 3.779 0 0 0 1.526-3.8 4.055 4.055 0 0 0-1.016-1.926m.445 3.9a2.14 2.14 0 0 1-1.043 1.135 3.547 3.547 0 0 1-1.773.339 7.275 7.275 0 0 1-4.109-1.652 3.528 3.528 0 0 1-1.044-1.466 2.188 2.188 0 0 1 1.077-2.68 3.48 3.48 0 0 1 1.587-.343h.185a7.162 7.162 0 0 1 4.109 1.651 3.6 3.6 0 0 1 1.042 1.476 2.134 2.134 0 0 1-.035 1.546M21.453 7.918a.2.2 0 0 1 .108-.256l5.969-2.43.037.061.974 1.58.014.033a.248.248 0 0 1 .018.157.17.17 0 0 1-.107.117.209.209 0 0 1-.243-.058 4.635 4.635 0 0 0-.848-.719 1.427 1.427 0 0 0-.732-.227h-.017a2.291 2.291 0 0 0-.845.193l-2.361.961 1.227 3.016 1.524-.62a1.36 1.36 0 0 0 .51-.326.77.77 0 0 0 .17-.484 2.991 2.991 0 0 0-.14-.879v-.008a.244.244 0 0 1 .014-.13.169.169 0 0 1 .093-.094.161.161 0 0 1 .141.011.2.2 0 0 1 .095.105l1.2 2.951a.2.2 0 0 1 .006.141.163.163 0 0 1-.093.107.158.158 0 0 1-.143-.012.27.27 0 0 1-.094-.083l-.007-.011a2.923 2.923 0 0 0-.507-.8.778.778 0 0 0-.481-.252 1.421 1.421 0 0 0-.616.126l-1.523.62 1.668 4.1a.138.138 0 0 0 .059.076.136.136 0 0 0 .1-.011l.921-.375a.188.188 0 0 1 .151 0 .19.19 0 0 1 .105.106.2.2 0 0 1-.109.257l-2.743 1.119a.185.185 0 0 1-.072.014.2.2 0 0 1-.077-.016.192.192 0 0 1-.107-.106.182.182 0 0 1 .108-.256l.607-.247c.083-.034.1-.073.066-.156l-3-7.368a.135.135 0 0 0-.059-.076.133.133 0 0 0-.1.011l-.607.247a.183.183 0 0 1-.257-.108zm35.608 14.938a4.055 4.055 0 0 0-.982 1.942 3.782 3.782 0 0 0 1.593 3.77 4.016 4.016 0 0 0 2.075.645h.2a5.7 5.7 0 0 0 2.216-.481 5.6 5.6 0 0 0 2.024-1.4 4.019 4.019 0 0 0 .984-1.938 3.781 3.781 0 0 0-1.593-3.77 4.052 4.052 0 0 0-2.077-.65 5.99 5.99 0 0 0-4.437 1.875m-.439 2.363a3.607 3.607 0 0 1 1.019-1.49 7.163 7.163 0 0 1 4.079-1.723 3.61 3.61 0 0 1 1.779.308 2.189 2.189 0 0 1 1.124 2.661 3.529 3.529 0 0 1-1.026 1.497 7.274 7.274 0 0 1-4.079 1.724 3.546 3.546 0 0 1-1.778-.308 2.189 2.189 0 0 1-1.125-2.661M7.679 27.83a5.54 5.54 0 0 0 2.046 1.37 5.694 5.694 0 0 0 2.122.439c.1 0 .2 0 .3-.009a4.059 4.059 0 0 0 2.066-.687 3.781 3.781 0 0 0 1.526-3.8 4.018 4.018 0 0 0-1.018-1.92 5.6 5.6 0 0 0-2.048-1.362 5.6 5.6 0 0 0-2.421-.435 4.018 4.018 0 0 0-2.064.682 3.78 3.78 0 0 0-1.526 3.8 4.056 4.056 0 0 0 1.017 1.922m-.445-3.9a2.141 2.141 0 0 1 1.043-1.135 3.423 3.423 0 0 1 1.571-.344h.2a6.644 6.644 0 0 1 2.183.506 6.635 6.635 0 0 1 1.926 1.146 3.531 3.531 0 0 1 1.043 1.475 2.189 2.189 0 0 1-1.077 2.68 3.588 3.588 0 0 1-1.773.339 6.531 6.531 0 0 1-2.185-.5 6.535 6.535 0 0 1-1.923-1.151A3.6 3.6 0 0 1 7.2 25.474a2.136 2.136 0 0 1 .035-1.546m3.842-7.373a.2.2 0 0 1 0-.279l1.163-1.166.035.005 8.589 1.391-4.654-4.646c-.063-.063-.106-.063-.169 0l-.623.624a.183.183 0 0 1-.279 0 .193.193 0 0 1-.057-.139.191.191 0 0 1 .057-.139l1.612-1.615a.2.2 0 0 1 .279 0 .2.2 0 0 1 0 .278l-.463.464c-.063.063-.063.106 0 .169l5.993 5.984-.328.328-.043-.005-9.13-1.361 4.914 4.906c.063.063.106.063.169 0l.623-.624a.2.2 0 0 1 .279 0 .2.2 0 0 1 .057.139.192.192 0 0 1-.057.139l-1.613 1.615a.2.2 0 0 1-.279 0 .182.182 0 0 1 0-.278l.463-.464c.063-.063.063-.106 0-.169l-5.63-5.621c-.063-.063-.106-.062-.169 0l-.463.463a.183.183 0 0 1-.277.001zm39.471 47.527a.192.192 0 0 1 0 .15.2.2 0 0 1-.106.106l-5.969 2.43-.037-.061-.974-1.58-.014-.033a.252.252 0 0 1-.018-.157.172.172 0 0 1 .107-.117.209.209 0 0 1 .243.058 4.623 4.623 0 0 0 .848.719 1.424 1.424 0 0 0 .732.227h.017a2.29 2.29 0 0 0 .845-.193l2.361-.961-1.227-3.016-1.524.62a1.353 1.353 0 0 0-.51.327.765.765 0 0 0-.17.483 2.975 2.975 0 0 0 .14.879v.008a.24.24 0 0 1-.014.13.168.168 0 0 1-.092.094.16.16 0 0 1-.141-.011.205.205 0 0 1-.1-.106l-1.2-2.951a.2.2 0 0 1-.006-.141.164.164 0 0 1 .092-.107.16.16 0 0 1 .143.012.274.274 0 0 1 .094.083l.006.011a2.923 2.923 0 0 0 .507.8.778.778 0 0 0 .481.252 1.411 1.411 0 0 0 .616-.126l1.524-.62-1.668-4.1a.1.1 0 0 0-.155-.066l-.921.375a.187.187 0 0 1-.151 0 .192.192 0 0 1-.1-.256.193.193 0 0 1 .106-.107l2.742-1.116a.2.2 0 0 1 .256.108.182.182 0 0 1-.108.256l-.607.247a.1.1 0 0 0-.066.156l3 7.368a.14.14 0 0 0 .059.076.136.136 0 0 0 .1-.011l.607-.247a.183.183 0 0 1 .257.108zm-7.933-50.206a3.5 3.5 0 0 1-1.04.155 4.1 4.1 0 0 1-.776-.077 3.618 3.618 0 0 1-1.894-.98 4.055 4.055 0 0 1-1.066-1.9 5.543 5.543 0 0 1-.039-2.458 5.663 5.663 0 0 1 .942-2.264 4.034 4.034 0 0 1 1.665-1.375 3.439 3.439 0 0 1 2.058-.214 4.434 4.434 0 0 1 1.409.508 4.5 4.5 0 0 1 1 .812l.258-.5A.154.154 0 0 1 45.3 5.5a.143.143 0 0 1 .092.066.162.162 0 0 1 .024.123l-.384 2.753a.265.265 0 0 1-.073.148.174.174 0 0 1-.153.047.2.2 0 0 1-.13-.09.27.27 0 0 1-.046-.151 4.327 4.327 0 0 0-.544-2.216A2.3 2.3 0 0 0 42.5 5.17a2.112 2.112 0 0 0-1.48.268 3.68 3.68 0 0 0-1.277 1.312 6.294 6.294 0 0 0-.779 2.091 6.2 6.2 0 0 0-.054 2.238 3.613 3.613 0 0 0 .723 1.693 2.267 2.267 0 0 0 1.352.818 3 3 0 0 0 1.485-.094 3.065 3.065 0 0 0 1.349-.893l.006-.006a.3.3 0 0 1 .153-.074.19.19 0 0 1 .164.062l.005.007a.223.223 0 0 1 .007.254l-.008.01a3.427 3.427 0 0 1-1.532 1.02m18.312 41.57a.2.2 0 0 1 0 .279l-1.164 1.165-.035-.006-8.589-1.391 4.654 4.647c.063.062.106.063.169 0l.623-.624a.183.183 0 0 1 .279 0 .192.192 0 0 1 .057.139.19.19 0 0 1-.057.139l-1.614 1.616a.2.2 0 0 1-.279-.278l.463-.464c.063-.063.063-.106 0-.169l-5.993-5.984.328-.328.043.005 9.13 1.361-4.914-4.906c-.063-.063-.106-.063-.169 0l-.623.624a.2.2 0 0 1-.279 0 .194.194 0 0 1-.056-.139.192.192 0 0 1 .057-.139l1.612-1.615a.2.2 0 0 1 .279 0 .182.182 0 0 1 0 .278l-.463.464c-.063.063-.063.106 0 .169l5.63 5.621c.063.063.106.063.169 0l.463-.464a.2.2 0 0 1 .139-.065.2.2 0 0 1 .139.064m-2.12-22.713 7.952.168h.007a.134.134 0 0 0 .087-.024.141.141 0 0 0 .028-.093l.014-.655a.182.182 0 0 1 .195-.193.2.2 0 0 1 .144.062.193.193 0 0 1 .055.139l-.035 1.646-.029.021-7.165 4.933 6.573.139a.137.137 0 0 0 .094-.024.141.141 0 0 0 .028-.093l.019-.881a.2.2 0 0 1 .394.008l-.048 2.281a.2.2 0 0 1-.338.131.19.19 0 0 1-.055-.139l.014-.655c0-.089-.028-.12-.117-.122l-8.467-.181.011-.465.028-.02 7.541-5.333-6.94-.147c-.087 0-.117.03-.119.117l-.018.881a.2.2 0 0 1-.394-.008l.048-2.282a.188.188 0 0 1 .061-.137.191.191 0 0 1 .135-.056.2.2 0 0 1 .147.056.194.194 0 0 1 .049.145l-.014.655a.1.1 0 0 0 .117.122m-12.146-16.88a.192.192 0 0 1 .3-.208l.648.413c.075.048.117.039.165-.036l4.346-6.8-1.2-.764a1.747 1.747 0 0 0-.707-.3.9.9 0 0 0-.531.121 6.848 6.848 0 0 0-.833.612l-.008.006a.256.256 0 0 1-.284.01.152.152 0 0 1-.068-.1.222.222 0 0 1 .043-.168.435.435 0 0 1 .077-.1l1.18-1.28.049.031 5.933 3.79-.026.065-.639 1.544a.425.425 0 0 1-.054.11.223.223 0 0 1-.134.11.153.153 0 0 1-.115-.022.253.253 0 0 1-.111-.26v-.01A6.987 6.987 0 0 0 54.9 11.6a.891.891 0 0 0-.113-.533 1.745 1.745 0 0 0-.571-.514l-1.2-.764-4.346 6.8c-.048.075-.039.117.036.165l.647.413a.193.193 0 0 1 .085.124.193.193 0 0 1-.149.233.221.221 0 0 1-.045 0 .189.189 0 0 1-.1-.03l-2.4-1.533a.194.194 0 0 1-.085-.123M40.685 67.21a.2.2 0 0 1-.176.216l-2.607.267h-.022a.2.2 0 0 1-.193-.178.191.191 0 0 1 .044-.143.194.194 0 0 1 .131-.072l.653-.067c.089-.009.116-.042.107-.131l-.809-7.913a.14.14 0 0 0-.036-.09.13.13 0 0 0-.094-.017l-.653.067a.186.186 0 0 1-.144-.044.194.194 0 0 1-.072-.131.191.191 0 0 1 .044-.144.194.194 0 0 1 .131-.072l2.609-.266h.021a.191.191 0 0 1 .123.045.192.192 0 0 1-.1.348l-.652.067a.137.137 0 0 0-.09.035.14.14 0 0 0-.017.1L39.692 67a.14.14 0 0 0 .036.09.133.133 0 0 0 .1.016l.652-.067a.191.191 0 0 1 .148.038.2.2 0 0 1 .067.138m17.644-53a.183.183 0 0 1 .018-.278.2.2 0 0 1 .142-.047.194.194 0 0 1 .136.065l1.727 1.972a.2.2 0 0 1-.019.278.186.186 0 0 1-.144.047.191.191 0 0 1-.134-.065l-.432-.493c-.058-.066-.1-.069-.169-.011l-5.983 5.24a.1.1 0 0 0-.011.168l.432.493a.2.2 0 0 1-.018.278.191.191 0 0 1-.128.048h-.026a.191.191 0 0 1-.134-.066l-1.727-1.972a.2.2 0 0 1 .019-.278.2.2 0 0 1 .132-.056h.008a.2.2 0 0 1 .137.074l.432.493c.059.067.1.07.168.011l5.984-5.24a.139.139 0 0 0 .053-.081.138.138 0 0 0-.041-.087zm-23.149-1.19a.2.2 0 0 1-.175.216l-2.609.266h-.021a.205.205 0 0 1-.157-.326.2.2 0 0 1 .138-.067l.652-.067a.1.1 0 0 0 .107-.131l-.809-7.913a.139.139 0 0 0-.036-.09.129.129 0 0 0-.1-.017l-.652.067a.192.192 0 0 1-.148-.037.2.2 0 0 1-.068-.139.2.2 0 0 1 .176-.216l2.612-.264a.188.188 0 0 1 .144.044.2.2 0 0 1-.1.348l-.653.067c-.089.009-.116.042-.107.131l.809 7.913a.139.139 0 0 0 .036.09.128.128 0 0 0 .094.017l.653-.067a.187.187 0 0 1 .144.044.194.194 0 0 1 .072.131m-1.026 47.9a5.538 5.538 0 0 1 .038 2.461 5.657 5.657 0 0 1-.942 2.264 4.032 4.032 0 0 1-1.665 1.375 3.388 3.388 0 0 1-1.358.283 3.656 3.656 0 0 1-.7-.069 4.434 4.434 0 0 1-1.409-.508 4.487 4.487 0 0 1-1-.812l-.258.5a.154.154 0 0 1-.169.086.143.143 0 0 1-.092-.066.162.162 0 0 1-.024-.123l.384-2.753a.269.269 0 0 1 .073-.148.173.173 0 0 1 .153-.047.2.2 0 0 1 .13.09.269.269 0 0 1 .046.15 4.324 4.324 0 0 0 .544 2.216A2.305 2.305 0 0 0 29.5 66.83a2.111 2.111 0 0 0 1.481-.268 3.674 3.674 0 0 0 1.277-1.312 6.289 6.289 0 0 0 .779-2.091 6.2 6.2 0 0 0 .054-2.238 3.613 3.613 0 0 0-.723-1.693 2.265 2.265 0 0 0-1.352-.817 3 3 0 0 0-1.485.093 3.061 3.061 0 0 0-1.349.893l-.007.006a.3.3 0 0 1-.153.075.191.191 0 0 1-.164-.062l-.006-.007a.223.223 0 0 1-.007-.254l.008-.01a3.429 3.429 0 0 1 1.532-1.02 3.719 3.719 0 0 1 1.816-.078 3.618 3.618 0 0 1 1.894.98 4.055 4.055 0 0 1 1.066 1.9"/>
    </g>
</svg>
