<svg xmlns="http://www.w3.org/2000/svg" width="108" height="14.688" viewBox="0 0 108 14.688">
    <defs>
        <clipPath id="jwq24ebcwa">
            <path data-name="사각형 511" d="M0 0h108v14.688H0z"/>
        </clipPath>
    </defs>
    <g data-name="그룹 1408">
        <g data-name="그룹 1334" style="clip-path:url(#jwq24ebcwa)">
            <path data-name="패스 499" d="M5.267 9.484H2.874v4.427c0 .336-.063.461-.441.461H.441c-.378 0-.441-.084-.441-.461C0 11.62.021 9.442.021 7.32S0 3.02 0 .735C0 .357.063.273.441.273h4.847c3.4 0 5.246 1.532 5.246 4.532 0 2.959-1.91 4.679-5.266 4.679m.021-7.008H2.874c0 .588-.021 1.511-.021 2.413s.021 1.783.021 2.392h2.477a2.149 2.149 0 0 0 2.391-2.413 2.156 2.156 0 0 0-2.454-2.392"/>
            <path data-name="패스 500" d="M14.291 2.476c0 .336-.063.462-.441.462h-1.93c-.378 0-.44-.084-.44-.462V.734c0-.377.063-.461.44-.461h1.93c.378 0 .441.126.441.461zm0 11.436c0 .336-.063.462-.441.462h-1.93c-.378 0-.44-.084-.44-.462 0-1.637.021-3.42.021-4.679s-.021-3.084-.021-4.763c0-.378.063-.462.44-.462h1.93c.378 0 .441.126.441.462v9.442z"/>
            <path data-name="패스 501" d="M18.386 13.912c0 .336-.063.462-.441.462h-1.93c-.378 0-.441-.084-.441-.462 0-2.287.021-4.469.021-6.589s-.021-4.3-.021-6.589c0-.377.063-.461.441-.461h1.93c.378 0 .441.126.441.461v13.178z"/>
            <path data-name="패스 502" d="M29.738 13.911c0 .336-.063.462-.441.462h-1.888c-.378 0-.441-.084-.441-.462v-.839a3.589 3.589 0 0 1-3.043 1.511c-2.5 0-4.511-1.868-4.511-5.372 0-3 1.846-5.476 4.616-5.476a3.64 3.64 0 0 1 2.938 1.259 1.938 1.938 0 0 1-.021-.524c0-.378.042-.462.42-.462h1.93c.378 0 .441.126.441.462v9.442zm-5.036-8.309c-1.658 0-2.6 1.322-2.6 3.483 0 2.476.965 3.609 2.371 3.609 1.658 0 2.56-1.028 2.56-3.42 0-2.5-.986-3.672-2.329-3.672"/>
            <path data-name="패스 503" d="M37.589 5.749c0 .21-.1.42-.294.4-.084 0-.168-.021-.4-.021-1.742 0-3.105 1.238-3.105 3.735v4.05c0 .336-.063.462-.441.462h-1.93c-.378 0-.441-.084-.441-.462 0-1.637.021-3.42.021-4.679s-.021-3.084-.021-4.763c0-.378.063-.462.441-.462h1.8c.378 0 .441.126.441.462V5.73a3.8 3.8 0 0 1 3.4-1.93c.42 0 .525.147.525.378z"/>
            <path data-name="패스 504" d="M49.507 14.688c-4.574 0-7.029-3-7.029-7.281 0-4.49 2.77-7.407 7.008-7.407 3 0 5.477 1.406 6.274 4.742.084.315-.231.441-.419.441h-1.823a.57.57 0 0 1-.587-.357 3.454 3.454 0 0 0-3.483-2.6c-2.56 0-4.05 2.014-4.05 5.162s1.658 5.1 4.176 5.1c2.014 0 3.063-.965 3.462-2.938a.48.48 0 0 1 .525-.377h1.783a.4.4 0 0 1 .419.525c-.839 3.609-3.105 4.994-6.253 4.994"/>
            <path data-name="패스 505" d="M61.743 14.625c-3.378 0-5.246-2.224-5.246-5.414 0-3.231 1.972-5.476 5.246-5.476 3.189 0 5.2 2.056 5.2 5.413 0 3.378-1.993 5.477-5.2 5.477m-.021-8.9c-1.595 0-2.413 1.217-2.413 3.5 0 2.077.755 3.4 2.434 3.4 1.553 0 2.392-1.133 2.392-3.42 0-2.329-.9-3.483-2.413-3.483"/>
            <path data-name="패스 506" d="M74.587 5.749c0 .21-.1.42-.294.4-.084 0-.168-.021-.4-.021-1.741 0-3.105 1.238-3.105 3.735v4.05c0 .336-.063.462-.441.462h-1.93c-.378 0-.441-.084-.441-.462 0-1.637.021-3.42.021-4.679s-.021-3.084-.021-4.763c0-.378.063-.462.441-.462h1.8c.378 0 .441.126.441.462V5.73a3.8 3.8 0 0 1 3.4-1.93c.42 0 .525.147.525.378z"/>
            <path data-name="패스 507" d="M82.226 5.749c0 .21-.1.42-.294.4-.084 0-.168-.021-.4-.021-1.742 0-3.105 1.238-3.105 3.735v4.05c0 .336-.063.462-.441.462h-1.93c-.378 0-.441-.084-.441-.462 0-1.637.021-3.42.021-4.679s-.021-3.084-.021-4.763c0-.378.063-.462.441-.462h1.8c.377 0 .441.126.441.462V5.73a3.8 3.8 0 0 1 3.4-1.93c.42 0 .525.147.525.378z"/>
            <path data-name="패스 508" d="M86.069 2.476c0 .336-.063.462-.441.462h-1.933c-.378 0-.441-.084-.441-.462V.734c0-.377.063-.461.441-.461h1.93c.378 0 .441.126.441.461zm0 11.436c0 .336-.063.462-.441.462h-1.933c-.378 0-.441-.084-.441-.462 0-1.637.021-3.42.021-4.679s-.021-3.084-.021-4.763c0-.378.063-.462.441-.462h1.93c.378 0 .441.126.441.462v9.442z"/>
            <path data-name="패스 509" d="M97.401 13.911c0 .336-.063.462-.44.462h-1.893c-.377 0-.44-.084-.44-.462v-.839a3.59 3.59 0 0 1-3.043 1.511c-2.5 0-4.511-1.868-4.511-5.372 0-3 1.846-5.476 4.616-5.476a3.641 3.641 0 0 1 2.938 1.259 1.915 1.915 0 0 1-.021-.524c0-.378.042-.462.42-.462h1.931c.378 0 .44.126.44.462v9.442zm-5.033-8.309c-1.658 0-2.6 1.322-2.6 3.483 0 2.476.965 3.609 2.371 3.609 1.658 0 2.56-1.028 2.56-3.42 0-2.5-.986-3.672-2.329-3.672"/>
            <path data-name="패스 510" d="M103.258 14.625c-2.875 0-4.406-1.112-4.847-2.749a3.052 3.052 0 0 1-.084-.629c0-.168.126-.273.336-.273h1.93a.422.422 0 0 1 .42.273c.293.965.86 1.511 2.37 1.511 1.175 0 1.889-.4 1.889-1.2 0-2.1-6.756-.482-6.756-4.49 0-2.1 1.826-3.336 4.427-3.336 2.392 0 4.071.965 4.532 2.665a2.834 2.834 0 0 1 .147.609c0 .168-.126.273-.4.273h-1.866a.394.394 0 0 1-.419-.252 2.006 2.006 0 0 0-2.1-1.469c-1.007 0-1.553.461-1.553 1.07 0 1.972 6.714.42 6.714 4.469 0 2.182-1.951 3.525-4.742 3.525"/>
        </g>
    </g>
</svg>
