<svg data-name="그룹 1417" xmlns="http://www.w3.org/2000/svg" width="108" height="11.818" viewBox="0 0 108 11.818">
    <defs>
        <clipPath id="0s0wjujzxa">
            <path data-name="사각형 526" d="M0 0h108v11.818H0z"/>
        </clipPath>
    </defs>
    <g data-name="그룹 1391" style="clip-path:url(#0s0wjujzxa)">
        <path data-name="패스 564" d="m20.8 0-4.679 5.367L21 11.386h-2.987L13.919 6.1h-.033v5.285H11.6V0h2.284v4.894L18 0zm12.114 0-2.708 8.629h-.033L27.466 0h-3.654v11.386H26V2.023l.033-.033 3.067 9.4h2.186l3.067-9.4h.033v9.4h2.186V0zM2.334 1.96H4.7a1.885 1.885 0 0 1 1.3.42 1.548 1.548 0 0 1 .467 1.213 1.625 1.625 0 0 1-.459 1.214 1.843 1.843 0 0 1-1.346.451H2.334zM0 11.386h2.334V7.094h2.737a4.477 4.477 0 0 0 1.564-.257A3.309 3.309 0 0 0 7.8 6.122a3.12 3.12 0 0 0 .731-1.1 3.864 3.864 0 0 0 .259-1.444 3.663 3.663 0 0 0-.264-1.416 3.559 3.559 0 0 0-.731-1.12A3.406 3.406 0 0 0 6.58.272 4.771 4.771 0 0 0 4.885 0H0zm59.394-4.3H56.12l1.621-4.626h.032zm-7.222 4.333H54.5l.979-2.568h4.542l.963 2.568h2.486l-4.4-11.2h-2.533zm12.6 0h6.6V9.65h-4.349V.213h-2.247zm8.138 0h6.6V9.65h-4.349V.213h-2.247zm8.138 0H87.7V9.65h-4.4V6.5h4V4.739h-4V1.978h4.365V.213h-6.613zm10.7-9.437h.738c1.123 0 2.375.112 2.375 1.461C94.87 4.835 93.6 5 92.494 5h-.738zm-2.247 9.437h2.247V6.761h.722c.947 0 1.236.321 1.557 1.155l1.348 3.5h2.5l-1.8-4.381c-.225-.5-.578-1.107-1.188-1.155v-.034a2.563 2.563 0 0 0 2.311-2.6c0-3.114-2.873-3.033-5.28-3.033h-2.409zM105.625.213l-2.7 4.7-2.645-4.7h-2.632l4.093 6.773v4.43h2.247v-4.43L108 .213zM46.571 0a7.272 7.272 0 0 0-3.336.759A5.679 5.679 0 0 0 40.9 2.886a5.749 5.749 0 0 0-.837 3.06 5.618 5.618 0 0 0 3.137 5.121 7.2 7.2 0 0 0 3.3.75 9.136 9.136 0 0 0 2.478-.334 6.676 6.676 0 0 0 2.041-.928V5.806h-4.127v1.74H48.8v1.913a6.864 6.864 0 0 1-1.151.346 5.445 5.445 0 0 1-1.01.091 4.406 4.406 0 0 1-3.1-1.076 3.669 3.669 0 0 1-1.175-2.841 4.165 4.165 0 0 1 .54-2.107 3.611 3.611 0 0 1 1.521-1.447 4.851 4.851 0 0 1 2.243-.5 9.061 9.061 0 0 1 4.123 1.064V.949A10.152 10.152 0 0 0 46.571 0"/>
    </g>
</svg>
