<svg
	width="48"
	height="18"
	viewBox="0 0 48 18"
	fill="none"
	xmlns="http://www.w3.org/2000/svg"
	preserveAspectRatio="none"
>
	<path
		fill-rule="evenodd"
		clip-rule="evenodd"
		d="M48.5029 1.5C44.697 1.5 40.7845 4.01227 36.7757 9.302C32.7008 14.679 28.5294 17.5 24.2515 17.5C19.9736 17.5 15.8022 14.679 11.7273 9.302C7.71842 4.01227 3.80595 1.5 1.90735e-05 1.5C1.27157e-05 1.5 6.35783e-06 1.5 0 1.5V0.5C6.35783e-06 0.5 1.27157e-05 0.5 1.90735e-05 0.5C4.27793 0.5 8.44931 3.32106 12.5242 8.698C16.5331 13.9877 20.4455 16.5 24.2515 16.5C28.0574 16.5 31.9699 13.9877 35.9787 8.698C40.0537 3.32106 44.225 0.5 48.5029 0.5V1.5Z"
		fill="#975958"
	/>
</svg>
