<svg width="48" height="17" viewBox="0 0 48 17" fill="none" xmlns="http://www.w3.org/2000/svg">
<path fill-rule="evenodd" clip-rule="evenodd" d="M48 1C44.2336 1 40.3616 3.51227 36.3944 8.802C32.3617 14.179 28.2336 17 24 17C19.7665 17 15.6384 14.179 11.6057 8.802C7.63839 3.51227 3.76649 1 1.88757e-05 1C2.51676e-05 1 1.25839e-05 1 1.88757e-05 1L0 0C-6.29188e-06 0 6.29191e-06 0 0 0C4.23356 0 8.3617 2.82106 12.3943 8.198C16.3617 13.4877 20.2335 16 24 16C27.7665 16 31.6384 13.4877 35.6057 8.198C39.6384 2.82106 43.7665 0 48 0V1Z" fill="#975958"/>
</svg>
