<svg width="49" height="17" viewBox="0 0 49 17" fill="none" xmlns="http://www.w3.org/2000/svg">
<mask id="mask0_824_7865" style="mask-type:alpha" maskUnits="userSpaceOnUse" x="0" y="0" width="49" height="17">
<rect width="49" height="17" fill="#D9D9D9"/>
</mask>
<g mask="url(#mask0_824_7865)">
<path fill-rule="evenodd" clip-rule="evenodd" d="M49.125 1C45.2605 1 41.2877 3.51227 37.2172 8.802C33.0795 14.179 28.8438 17 24.5001 17C20.1563 17 15.9206 14.179 11.7829 8.802C7.71231 3.51227 3.73957 1 -0.124981 1C-0.124974 1 -0.124987 1 -0.124981 1L-0.125 0C-0.125006 0 -0.124994 0 -0.125 0C4.2188 0 8.45446 2.82106 12.5921 8.198C16.6628 13.4877 20.6354 16 24.5001 16C28.3646 16 32.3373 13.4877 36.4079 8.198C40.5457 2.82106 44.7812 0 49.125 0V1Z" fill="#975958"/>
</g>
</svg>
