<svg
	width="32"
	height="18"
	viewBox="0 0 32 18"
	fill="none"
	xmlns="http://www.w3.org/2000/svg"
	preserveAspectRatio="none"
>
	<path
		fill-rule="evenodd"
		clip-rule="evenodd"
		d="M32 0H0V0.999998C2.66668 0.999998 5.33335 3.66667 8 9C13.3333 19.6667 18.6667 19.6667 24 9C26.6667 3.66667 29.3333 0.999998 32 0.999998V0Z"
		fill="#FFFAEF"
	/>
	<path
		fill-rule="evenodd"
		clip-rule="evenodd"
		d="M32 0.5V1.5C30.846 1.5 29.6324 2.07472 28.3535 3.35355C27.0737 4.63341 25.7688 6.58047 24.4472 9.22361C23.1021 11.9138 21.7404 13.9668 20.3536 15.3536C18.9657 16.7414 17.5127 17.5 16 17.5C14.4873 17.5 13.0343 16.7414 11.6464 15.3536C10.2596 13.9668 8.89788 11.9138 7.55279 9.22361C6.23123 6.58047 4.92632 4.63341 3.64646 3.35355C2.36762 2.07472 1.15396 1.5 0 1.5V0.5C1.51272 0.5 2.96573 1.25861 4.35356 2.64645C5.74037 4.03326 7.10213 6.0862 8.44722 8.7764C9.76878 11.4195 11.0737 13.3666 12.3535 14.6465C13.6324 15.9253 14.846 16.5 16 16.5C17.154 16.5 18.3676 15.9253 19.6465 14.6465C20.9263 13.3666 22.2312 11.4195 23.5528 8.7764C24.8979 6.0862 26.2596 4.03326 27.6464 2.64645C29.0343 1.25861 30.4873 0.5 32 0.5Z"
		fill="#975958"
	/>
</svg>
